<svg aria-hidden="true" style="position:absolute;width:0;height:0;overflow:hidden" xmlns="http://www.w3.org/2000/svg"><defs><symbol id="havyrain" viewBox="0 0 32 32"><path d="M30.4 8h-1.28a6.78 6.78 0 0 0-.832-2.032l.896-.896a1.604 1.604 0 0 0-.083-2.173 1.597 1.597 0 0 0-2.172-.083l-.896.896a6.78 6.78 0 0 0-2.032-.832V1.6a1.6 1.6 0 0 0-3.2 0v1.28a6.558 6.558 0 0 0-2.016.832l-.912-.896a1.603 1.603 0 0 0-2.172.083 1.605 1.605 0 0 0-.084 2.173l.896.912c-.144.24-.256.512-.384.768a9.356 9.356 0 0 0-2.528-.352 9.6 9.6 0 0 0-9.504 8.207 5.598 5.598 0 0 0-4.084 5.004 5.601 5.601 0 0 0 3.348 5.523c.204.081.421.124.64.128a1.6 1.6 0 0 0 .64-3.071 2.368 2.368 0 0 1-1.44-2.192 2.4 2.4 0 0 1 2.4-2.4 1.6 1.6 0 0 0 1.6-1.6 6.4 6.4 0 0 1 12.448-2.065 1.597 1.597 0 0 0 1.248 1.072 3.71 3.71 0 0 1 1.503 6.768 1.608 1.608 0 0 0 .552 2.917c.417.087.852.005 1.208-.229a6.948 6.948 0 0 0 3.04-5.792 6.69 6.69 0 0 0-.48-2.48l.208.192a1.599 1.599 0 0 0 1.734.345c.195-.08.372-.197.522-.345a1.6 1.6 0 0 0 0-2.256l-.896-.896a6.78 6.78 0 0 0 .832-2.032h1.28a1.6 1.6 0 0 0 0-3.2zm-5.344 4.24a3.346 3.346 0 0 1-.96.672 6.684 6.684 0 0 0-1.696-.848 9.786 9.786 0 0 0-3.344-3.984c.178-.413.427-.792.736-1.12a3.885 3.885 0 0 1 5.28 0 3.793 3.793 0 0 1 0 5.28h-.016zM10.401 19.2a1.6 1.6 0 0 0-1.6 1.6v9.6a1.6 1.6 0 0 0 3.2 0v-9.6a1.6 1.6 0 0 0-1.6-1.6zm6.4-1.6a1.6 1.6 0 0 0-1.6 1.6v9.6a1.6 1.6 0 0 0 3.2 0v-9.6a1.6 1.6 0 0 0-1.6-1.6z"/></symbol><symbol id="lightrain" viewBox="0 0 32 32"><path d="M14.481 19.679a1.616 1.616 0 0 0-1.776 0c-.16.126-3.904 2.637-3.904 6.584 0 1.256.506 2.461 1.406 3.349s2.121 1.387 3.394 1.387c1.273 0 2.494-.499 3.394-1.387s1.406-2.093 1.406-3.349c0-3.947-3.744-6.474-3.92-6.584zm-.88 8.163c-.424 0-.831-.166-1.131-.462s-.469-.698-.469-1.116a4.714 4.714 0 0 1 1.6-3.158 4.714 4.714 0 0 1 1.6 3.158c0 .419-.169.82-.469 1.116s-.707.462-1.131.462zM30.4 8.895h-1.28a6.627 6.627 0 0 0-.832-2.005l.896-.884c.262-.302.399-.691.384-1.088s-.182-.774-.467-1.056a1.616 1.616 0 0 0-2.172-.083l-.896.884a6.86 6.86 0 0 0-2.032-.821V2.579c0-.419-.169-.82-.469-1.116s-.707-.462-1.131-.462c-.424 0-.831.166-1.131.462s-.469.698-.469 1.116v1.263a6.607 6.607 0 0 0-2.016.821l-.912-.884a1.616 1.616 0 0 0-2.172.083 1.565 1.565 0 0 0-.084 2.144l.896.9c-.144.237-.256.505-.384.758a9.47 9.47 0 0 0-2.528-.347c-2.306-.001-4.535.816-6.28 2.304s-2.889 3.545-3.224 5.796c-1.114.306-2.105.945-2.836 1.829S.094 19.216.013 20.355c-.081 1.139.198 2.274.797 3.25s1.49 1.745 2.551 2.201c.204.08.421.123.64.126.37.003.729-.121 1.017-.35s.487-.55.562-.907c.075-.357.023-.73-.148-1.053s-.451-.579-.791-.722c-.429-.18-.795-.482-1.051-.867s-.391-.836-.389-1.296c0-.628.253-1.231.703-1.675s1.06-.694 1.697-.694c.424 0 .831-.166 1.131-.462s.469-.698.469-1.116c.007-1.491.548-2.931 1.528-4.067s2.335-1.892 3.825-2.135c1.49-.244 3.02.04 4.319.803s2.282 1.953 2.776 3.362c.091.271.256.513.476.699s.487.31.772.359c.743.109 1.435.437 1.985.942s.931 1.163 1.094 1.887.1 1.479-.182 2.167A3.67 3.67 0 0 1 22.4 22.49c-.356.23-.606.591-.693 1.003s-.005.84.229 1.192c.233.352.599.598 1.016.683s.852.005 1.208-.226c1.327-.855 2.315-2.135 2.796-3.625s.426-3.099-.156-4.553l.208.205a1.61 1.61 0 0 0 1.734.341 1.568 1.568 0 0 0 .522-2.567l-.896-.884a6.662 6.662 0 0 0 .752-2.005h1.28c.424 0 .831-.166 1.131-.463s.469-.698.469-1.116c0-.419-.169-.82-.469-1.117s-.707-.462-1.131-.462zm-5.344 4.184c-.286.262-.609.48-.96.647a6.666 6.666 0 0 0-1.696-.884 9.698 9.698 0 0 0-3.344-3.932 3.56 3.56 0 0 1 .736-1.09 3.9 3.9 0 0 1 2.632-1.019 3.9 3.9 0 0 1 2.632 1.019c.686.698 1.07 1.633 1.07 2.605s-.384 1.907-1.07 2.605v.047z"/></symbol><symbol id="mainlycloudy" viewBox="0 0 40 32"><path d="M37.531 10h-1.576a8.597 8.597 0 0 0-1.024-2.54l1.103-1.12a2.02 2.02 0 0 0-.104-2.715 1.947 1.947 0 0 0-2.674-.104l-1.103 1.12a8.308 8.308 0 0 0-2.502-1.04v-1.6c0-.53-.208-1.039-.577-1.414s-.87-.586-1.393-.586c-.522 0-1.024.211-1.393.586s-.577.884-.577 1.414v1.6a8.008 8.008 0 0 0-2.482 1.04l-1.123-1.12c-.377-.328-.862-.499-1.357-.48s-.966.228-1.317.584a2.019 2.019 0 0 0-.104 2.715l1.103 1.14c-.177.3-.315.64-.473.96A11.384 11.384 0 0 0 16.846 8c-2.839-.002-5.583 1.034-7.732 2.918s-3.557 4.49-3.969 7.342c-1.603.456-2.989 1.486-3.902 2.9S-.049 24.274.177 25.949c.226 1.675 1.04 3.21 2.294 4.322S5.333 31.997 6.997 32h18.062c2.262 0 4.431-.912 6.031-2.536s2.498-3.827 2.498-6.124a8.491 8.491 0 0 0-.591-3.1l.256.24a1.952 1.952 0 0 0 2.777 0c.367-.375.573-.882.573-1.41s-.206-1.035-.573-1.41l-1.103-1.12A8.544 8.544 0 0 0 35.951 14h1.576c.522 0 1.023-.211 1.393-.586s.577-.884.577-1.414c0-.53-.208-1.039-.577-1.414S38.05 10 37.527 10zM25.062 28H7c-.784 0-1.535-.316-2.089-.879S4.046 25.795 4.046 25s.311-1.559.865-2.121A2.931 2.931 0 0 1 7 22c.522 0 1.024-.211 1.393-.586S8.97 20.53 8.97 20c.008-1.889.675-3.713 1.881-5.151s2.874-2.396 4.709-2.705c1.835-.309 3.718.051 5.317 1.017s2.809 2.474 3.418 4.259c.113.344.315.65.586.886s.599.393.951.454c1.118.212 2.118.838 2.808 1.757s1.018 2.064.922 3.215c-.096 1.151-.609 2.224-1.44 3.013s-1.921 1.236-3.058 1.254zm5.91-12.7a4.266 4.266 0 0 1-1.182.8 8.79 8.79 0 0 0-2.108-1.02 12.203 12.203 0 0 0-4.117-4.98c.215-.513.522-.981.906-1.38.881-.829 2.038-1.29 3.24-1.29s2.359.461 3.24 1.29c.845.884 1.317 2.068 1.317 3.3s-.472 2.416-1.317 3.3l.02-.02z"/></symbol><symbol id="rainy" viewBox="0 0 32 32"><path d="M9.456 20.364a1.45 1.45 0 0 0-1.454 1.455v1.455a1.455 1.455 0 1 0 2.908 0v-1.455a1.455 1.455 0 0 0-1.454-1.455zm21.09-11.637h-1.6a7.598 7.598 0 0 0-1.062-2.56l1.207-1.12a1.46 1.46 0 1 0-2.066-2.066l-1.12 1.135a7.286 7.286 0 0 0-2.633-1.062v-1.6a1.455 1.455 0 1 0-2.908 0v1.6a7.598 7.598 0 0 0-2.56 1.062l-1.12-1.135a1.472 1.472 0 0 0-1.033-.428 1.467 1.467 0 0 0-1.033.428 1.46 1.46 0 0 0 0 2.066l1.134 1.12a7.356 7.356 0 0 0-1.12 2.909 8.387 8.387 0 0 0-2.269-.349 8.727 8.727 0 0 0-8.64 7.462 5.093 5.093 0 0 0-3.712 4.549 5.093 5.093 0 0 0 3.044 5.022c.185.073.382.113.582.116a1.455 1.455 0 0 0 .582-2.793A2.152 2.152 0 0 1 2.91 21.09a2.182 2.182 0 0 1 2.182-2.182 1.455 1.455 0 0 0 1.455-1.455 5.823 5.823 0 0 1 4.866-5.713 5.818 5.818 0 0 1 6.449 3.838 1.455 1.455 0 0 0 1.134.974 3.376 3.376 0 0 1 1.368 6.153 1.472 1.472 0 0 0-.63.923 1.458 1.458 0 0 0 .208 1.098 1.46 1.46 0 0 0 2.022.422 6.314 6.314 0 0 0 2.764-5.266 6.413 6.413 0 0 0-.655-2.793 7.523 7.523 0 0 0 1.76-.844l1.12 1.135a1.454 1.454 0 0 0 2.138.073 1.444 1.444 0 0 0 .43-1.032 1.45 1.45 0 0 0-.43-1.032l-1.134-1.12a7.264 7.264 0 0 0 .989-2.633h1.6A1.45 1.45 0 0 0 32 10.181a1.45 1.45 0 0 0-1.454-1.454zm-5.629 4.538a4.364 4.364 0 0 1-3.098 1.28h-.087a6.008 6.008 0 0 0-1.454-.669 8.634 8.634 0 0 0-2.909-3.462v-.233a4.364 4.364 0 0 1 1.265-3.084 4.506 4.506 0 0 1 6.182 0 4.37 4.37 0 0 1 .95 4.764 4.37 4.37 0 0 1-.95 1.418l.102-.015zM9.456 27.636a1.45 1.45 0 0 0-1.454 1.455v1.455a1.455 1.455 0 1 0 2.908 0v-1.455a1.455 1.455 0 0 0-1.454-1.455zm5.818-1.454a1.45 1.45 0 0 0-1.454 1.455v1.455a1.455 1.455 0 1 0 2.909 0v-1.455a1.455 1.455 0 0 0-1.454-1.455zm0-7.273a1.45 1.45 0 0 0-1.454 1.455v1.455a1.455 1.455 0 1 0 2.909 0v-1.455a1.455 1.455 0 0 0-1.454-1.455z"/></symbol><symbol id="bell" viewBox="0 0 32 32"><path d="M30.222 25.905v1.524H1.778v-1.524l3.16-3.048v-9.143c0-4.724 3.208-8.884 7.901-10.225v-.442c0-.808.333-1.583.926-2.155S15.162-.001 16-.001c.838 0 1.642.321 2.235.893s.926 1.347.926 2.155v.442c4.693 1.341 7.901 5.501 7.901 10.225v9.143l3.161 3.048zM19.16 28.952c0 .808-.333 1.583-.926 2.155S16.837 32 15.999 32c-.838 0-1.642-.321-2.235-.893s-.926-1.347-.926-2.155z"/></symbol><symbol id="location" viewBox="0 0 26 32"><path d="M12.8 16c.88 0 1.634-.314 2.261-.941s.94-1.38.939-2.259c0-.88-.314-1.634-.941-2.261s-1.38-.94-2.259-.939c-.88 0-1.634.314-2.261.941s-.94 1.38-.939 2.259c0 .88.314 1.634.941 2.261s1.38.94 2.259.939zm0 11.76c3.253-2.987 5.667-5.7 7.24-8.141s2.36-4.607 2.36-6.499c0-2.907-.927-5.286-2.781-7.139S15.492 3.201 12.8 3.2c-2.693 0-4.967.927-6.821 2.781S3.199 10.215 3.2 13.12c0 1.893.787 4.06 2.36 6.501s3.987 5.154 7.24 8.139zm0 4.24c-4.293-3.653-7.5-7.046-9.619-10.179S.001 15.788 0 13.12c0-4 1.287-7.187 3.861-9.56S9.415 0 12.8 0c3.387 0 6.367 1.187 8.941 3.56s3.86 5.56 3.859 9.56c0 2.667-1.06 5.567-3.181 8.701S17.092 28.348 12.8 32z"/></symbol><symbol id="search" viewBox="0 0 32 32"><path d="m31.64 29.9-7.695-7.693a13.542 13.542 0 0 0-1.274-18.665A13.539 13.539 0 0 0 .005 13.234a13.541 13.541 0 0 0 22.202 10.711L29.9 31.64a1.237 1.237 0 0 0 .87.361 1.23 1.23 0 0 0 1.137-1.702 1.222 1.222 0 0 0-.267-.399zM2.493 13.558A11.062 11.062 0 0 1 9.324 3.336a11.069 11.069 0 0 1 12.058 2.398 11.067 11.067 0 0 1-1.677 17.024 11.062 11.062 0 0 1-6.147 1.865A11.075 11.075 0 0 1 2.494 13.558z"/></symbol><symbol id="main" viewBox="0 0 32 32"><path d="M14.222 14.222V0H3.555A3.566 3.566 0 0 0-.001 3.556v10.667h14.222zm3.556 0H32V3.555c0-1.956-1.6-3.556-3.556-3.556H17.777v14.222zm-3.556 3.556H0v10.667c0 1.956 1.6 3.556 3.556 3.556h10.667V17.779zm3.556 0V32h10.667c1.956 0 3.556-1.6 3.556-3.556V17.777H17.779z"/></symbol><symbol id="settings" viewBox="0 0 32 32"><path d="M29.385 17.056a1.584 1.584 0 0 1 0-2.112l2.085-2.304a1.583 1.583 0 0 0 .195-1.872l-3.257-5.535c-.171-.292-.432-.523-.745-.661s-.662-.175-.998-.107l-3.062.608c-.39.079-.795.015-1.14-.179s-.606-.506-.733-.877l-.993-2.928C20.628.771 20.42.495 20.142.3s-.611-.3-.952-.299h-6.514c-.355-.018-.707.078-1.001.275s-.515.482-.628.813l-.912 2.928c-.127.37-.388.682-.733.877s-.751.258-1.14.179l-3.143-.608c-.318-.044-.643.005-.933.142s-.532.354-.696.626L.233 10.768a1.582 1.582 0 0 0 .163 1.872l2.068 2.304a1.584 1.584 0 0 1 0 2.112L.396 19.36c-.225.255-.361.574-.391.91s.05.673.228.962l3.257 5.535c.171.292.432.523.745.661s.662.175.998.107l3.062-.608c.39-.079.795-.015 1.14.179s.606.506.733.877l.993 2.928c.113.331.334.617.628.813s.646.293 1.001.275h6.514c.341.001.675-.104.952-.299s.486-.471.595-.789l.993-2.928c.127-.37.388-.682.733-.877s.751-.258 1.14-.179l3.062.608c.336.069.685.031.998-.107s.573-.369.745-.661l3.257-5.535a1.576 1.576 0 0 0-.195-1.872l-2.199-2.304zM26.959 19.2l1.303 1.44-2.085 3.552-1.922-.384c-1.173-.235-2.393-.04-3.429.55s-1.815 1.533-2.19 2.65l-.619 1.792h-4.169l-.586-1.824c-.375-1.117-1.154-2.06-2.19-2.65s-2.256-.785-3.429-.55l-1.922.384-2.117-3.536 1.303-1.44c.801-.88 1.244-2.019 1.244-3.2s-.443-2.32-1.244-3.2l-1.303-1.44 2.085-3.52 1.922.384c1.173.236 2.393.04 3.429-.55s1.815-1.533 2.19-2.65l.619-1.808h4.169l.619 1.824c.375 1.117 1.154 2.06 2.19 2.65s2.256.786 3.429.55l1.922-.384 2.085 3.552-1.303 1.44c-.792.878-1.23 2.01-1.23 3.184s.437 2.306 1.23 3.184zM15.933 9.601c-1.288 0-2.548.375-3.619 1.078s-1.906 1.703-2.399 2.872c-.493 1.169-.622 2.456-.371 3.697s.872 2.382 1.783 3.277c.911.895 2.072 1.504 3.335 1.751s2.573.12 3.764-.364c1.19-.484 2.208-1.305 2.923-2.357s1.098-2.29 1.098-3.555c0-1.697-.686-3.325-1.908-4.525s-2.879-1.874-4.606-1.874zm0 9.599c-.644 0-1.274-.188-1.81-.539s-.953-.851-1.2-1.436-.311-1.228-.185-1.849.436-1.191.891-1.638 1.036-.752 1.668-.876c.632-.123 1.287-.06 1.882.182s1.104.652 1.462 1.178a3.16 3.16 0 0 1-.405 4.04c-.611.6-1.439.937-2.303.937z"/></symbol></defs></svg>