<svg aria-hidden="true" style="position:absolute;width:0;height:0;overflow:hidden" xmlns="http://www.w3.org/2000/svg"><defs><symbol id="bell" viewBox="0 0 32 32"><path d="M30.222 25.905v1.524H1.778v-1.524l3.16-3.048v-9.143c0-4.724 3.208-8.884 7.901-10.225v-.442c0-.808.333-1.583.926-2.155S15.162-.001 16-.001c.838 0 1.642.321 2.235.893s.926 1.347.926 2.155v.442c4.693 1.341 7.901 5.501 7.901 10.225v9.143l3.161 3.048zM19.16 28.952c0 .808-.333 1.583-.926 2.155S16.837 32 15.999 32c-.838 0-1.642-.321-2.235-.893s-.926-1.347-.926-2.155z"/></symbol><symbol id="location" viewBox="0 0 26 32"><path d="M12.8 16c.88 0 1.634-.314 2.261-.941s.94-1.38.939-2.259c0-.88-.314-1.634-.941-2.261s-1.38-.94-2.259-.939c-.88 0-1.634.314-2.261.941s-.94 1.38-.939 2.259c0 .88.314 1.634.941 2.261s1.38.94 2.259.939zm0 11.76c3.253-2.987 5.667-5.7 7.24-8.141s2.36-4.607 2.36-6.499c0-2.907-.927-5.286-2.781-7.139S15.492 3.201 12.8 3.2c-2.693 0-4.967.927-6.821 2.781S3.199 10.215 3.2 13.12c0 1.893.787 4.06 2.36 6.501s3.987 5.154 7.24 8.139zm0 4.24c-4.293-3.653-7.5-7.046-9.619-10.179S.001 15.788 0 13.12c0-4 1.287-7.187 3.861-9.56S9.415 0 12.8 0c3.387 0 6.367 1.187 8.941 3.56s3.86 5.56 3.859 9.56c0 2.667-1.06 5.567-3.181 8.701S17.092 28.348 12.8 32z"/></symbol><symbol id="search" viewBox="0 0 32 32"><path d="m31.64 29.9-7.695-7.693a13.542 13.542 0 0 0-1.274-18.665A13.539 13.539 0 0 0 .005 13.234a13.541 13.541 0 0 0 22.202 10.711L29.9 31.64a1.237 1.237 0 0 0 .87.361 1.23 1.23 0 0 0 1.137-1.702 1.222 1.222 0 0 0-.267-.399zM2.493 13.558A11.062 11.062 0 0 1 9.324 3.336a11.069 11.069 0 0 1 12.058 2.398 11.067 11.067 0 0 1-1.677 17.024 11.062 11.062 0 0 1-6.147 1.865A11.075 11.075 0 0 1 2.494 13.558z"/></symbol><symbol id="main" viewBox="0 0 32 32"><path d="M14.222 14.222V0H3.555A3.566 3.566 0 0 0-.001 3.556v10.667h14.222zm3.556 0H32V3.555c0-1.956-1.6-3.556-3.556-3.556H17.777v14.222zm-3.556 3.556H0v10.667c0 1.956 1.6 3.556 3.556 3.556h10.667V17.779zm3.556 0V32h10.667c1.956 0 3.556-1.6 3.556-3.556V17.777H17.779z"/></symbol><symbol id="settings" viewBox="0 0 32 32"><path d="M29.385 17.056a1.584 1.584 0 0 1 0-2.112l2.085-2.304a1.583 1.583 0 0 0 .195-1.872l-3.257-5.535c-.171-.292-.432-.523-.745-.661s-.662-.175-.998-.107l-3.062.608c-.39.079-.795.015-1.14-.179s-.606-.506-.733-.877l-.993-2.928C20.628.771 20.42.495 20.142.3s-.611-.3-.952-.299h-6.514c-.355-.018-.707.078-1.001.275s-.515.482-.628.813l-.912 2.928c-.127.37-.388.682-.733.877s-.751.258-1.14.179l-3.143-.608c-.318-.044-.643.005-.933.142s-.532.354-.696.626L.233 10.768a1.582 1.582 0 0 0 .163 1.872l2.068 2.304a1.584 1.584 0 0 1 0 2.112L.396 19.36c-.225.255-.361.574-.391.91s.05.673.228.962l3.257 5.535c.171.292.432.523.745.661s.662.175.998.107l3.062-.608c.39-.079.795-.015 1.14.179s.606.506.733.877l.993 2.928c.113.331.334.617.628.813s.646.293 1.001.275h6.514c.341.001.675-.104.952-.299s.486-.471.595-.789l.993-2.928c.127-.37.388-.682.733-.877s.751-.258 1.14-.179l3.062.608c.336.069.685.031.998-.107s.573-.369.745-.661l3.257-5.535a1.576 1.576 0 0 0-.195-1.872l-2.199-2.304zM26.959 19.2l1.303 1.44-2.085 3.552-1.922-.384c-1.173-.235-2.393-.04-3.429.55s-1.815 1.533-2.19 2.65l-.619 1.792h-4.169l-.586-1.824c-.375-1.117-1.154-2.06-2.19-2.65s-2.256-.785-3.429-.55l-1.922.384-2.117-3.536 1.303-1.44c.801-.88 1.244-2.019 1.244-3.2s-.443-2.32-1.244-3.2l-1.303-1.44 2.085-3.52 1.922.384c1.173.236 2.393.04 3.429-.55s1.815-1.533 2.19-2.65l.619-1.808h4.169l.619 1.824c.375 1.117 1.154 2.06 2.19 2.65s2.256.786 3.429.55l1.922-.384 2.085 3.552-1.303 1.44c-.792.878-1.23 2.01-1.23 3.184s.437 2.306 1.23 3.184zM15.933 9.601c-1.288 0-2.548.375-3.619 1.078s-1.906 1.703-2.399 2.872c-.493 1.169-.622 2.456-.371 3.697s.872 2.382 1.783 3.277c.911.895 2.072 1.504 3.335 1.751s2.573.12 3.764-.364c1.19-.484 2.208-1.305 2.923-2.357s1.098-2.29 1.098-3.555c0-1.697-.686-3.325-1.908-4.525s-2.879-1.874-4.606-1.874zm0 9.599c-.644 0-1.274-.188-1.81-.539s-.953-.851-1.2-1.436-.311-1.228-.185-1.849.436-1.191.891-1.638 1.036-.752 1.668-.876c.632-.123 1.287-.06 1.882.182s1.104.652 1.462 1.178a3.16 3.16 0 0 1-.405 4.04c-.611.6-1.439.937-2.303.937z"/></symbol><symbol id="clear_day" viewBox="0 0 32 32"><path d="M16.001 8a8 8 0 1 0 0 16 8 8 0 0 0 0-16zM16 22.667c-3.676 0-6.667-2.991-6.667-6.667S12.324 9.333 16 9.333s6.667 2.991 6.667 6.667-2.991 6.667-6.667 6.667zm.001-16A.667.667 0 0 1 15.334 6V3.333a.667.667 0 0 1 1.334 0V6a.667.667 0 0 1-.667.667zm0 22.666a.667.667 0 0 1-.667-.667v-2.667a.667.667 0 0 1 1.334 0v2.667a.667.667 0 0 1-.667.667zM6.667 16a.667.667 0 0 1-.667.667H3.333a.667.667 0 0 1 0-1.334H6c.368 0 .667.299.667.667zm22.667 0a.667.667 0 0 1-.667.667H26a.667.667 0 0 1 0-1.334h2.667c.368 0 .667.299.667.667zM22.6 9.4a.668.668 0 0 1 0-.943l1.886-1.886a.668.668 0 0 1 .943.943L23.543 9.4a.668.668 0 0 1-.943 0zM6.572 25.428a.668.668 0 0 1 0-.943l1.886-1.886a.668.668 0 0 1 .943.943l-1.886 1.886a.668.668 0 0 1-.943 0zM9.401 9.4a.668.668 0 0 1-.943 0L6.572 7.514a.668.668 0 0 1 .943-.943l1.886 1.886c.26.26.26.683 0 .943zm16.028 16.028a.668.668 0 0 1-.943 0L22.6 23.542a.668.668 0 0 1 .943-.943l1.886 1.886c.26.26.26.682 0 .943z"/></symbol><symbol id="fog" viewBox="0 0 32 32"><path d="M15.996 29.146c-3.436 0-5.181-.559-6.868-1.097-1.663-.533-3.233-1.036-6.461-1.036a.666.666 0 1 1 0-1.334c3.437 0 5.181.559 6.868 1.099 1.663.532 3.233 1.035 6.461 1.035 3.231 0 4.801-.503 6.465-1.035 1.688-.54 3.433-1.099 6.872-1.099a.667.667 0 1 1 0 1.334c-3.229 0-4.801.503-6.465 1.036-1.688.539-3.433 1.097-6.872 1.097zm0-8c-3.436 0-5.181-.559-6.868-1.097-1.663-.533-3.233-1.036-6.461-1.036a.666.666 0 1 1 0-1.334c3.437 0 5.181.559 6.868 1.099 1.663.532 3.233 1.035 6.461 1.035 3.231 0 4.801-.503 6.465-1.035 1.688-.54 3.433-1.099 6.872-1.099a.667.667 0 1 1 0 1.334c-3.229 0-4.801.503-6.465 1.036-1.688.539-3.433 1.097-6.872 1.097zm0 4c-3.436 0-5.181-.559-6.868-1.097-1.663-.533-3.233-1.036-6.461-1.036a.666.666 0 1 1 0-1.334c3.437 0 5.181.559 6.868 1.099 1.663.532 3.233 1.035 6.461 1.035 3.231 0 4.801-.503 6.465-1.035 1.688-.54 3.433-1.099 6.872-1.099a.667.667 0 1 1 0 1.334c-3.229 0-4.801.503-6.465 1.036-1.688.539-3.433 1.097-6.872 1.097zM3.151 15.023c.564.009 1.089.031 1.577.066.31-.366.687-.679 1.156-.867l.932-.375-.103-1A8.219 8.219 0 0 1 6.666 12c0-4.411 3.589-8 8-8a7.976 7.976 0 0 1 7.755 6.071l.243.98 1.009.032a4.425 4.425 0 0 1 4.278 3.959c.417-.019.861-.028 1.33-.029a5.775 5.775 0 0 0-5.566-5.263c-1.007-4.067-4.671-7.084-9.049-7.084a9.332 9.332 0 0 0-9.28 10.317 4.349 4.349 0 0 0-2.235 2.038z"/></symbol><symbol id="freezing_rain" viewBox="0 0 32 32"><path d="M15.681 8.206a.666.666 0 0 1-.616-.922l.637-1.539a.668.668 0 1 1 1.232.511l-.637 1.539a.668.668 0 0 1-.616.411zm-4.365-.411.637-1.539a.668.668 0 0 0-1.231-.511l-.639 1.539a.667.667 0 0 0 1.232.511zm1.528 4.495.637-1.54a.668.668 0 0 0-.36-.872.67.67 0 0 0-.871.361l-.637 1.54a.668.668 0 0 0 1.231.511zm-4.992 0 .639-1.54a.668.668 0 0 0-1.232-.511l-.639 1.54a.669.669 0 0 0 .616.923.667.667 0 0 0 .616-.412zM6.335 7.795l.639-1.54a.668.668 0 0 0-1.232-.511l-.639 1.54a.667.667 0 0 0 1.232.511zm19.924 0 .639-1.539a.669.669 0 0 0-.361-.872.668.668 0 0 0-.871.361l-.637 1.539a.666.666 0 1 0 1.231.511zm-4.98 0 .637-1.539a.668.668 0 0 0-.36-.872.669.669 0 0 0-.872.361l-.637 1.539a.666.666 0 1 0 1.232.511zm1.549 4.495.637-1.54a.668.668 0 1 0-1.232-.511l-.637 1.54a.668.668 0 1 0 1.232.511zm-4.992 0 .639-1.54a.668.668 0 0 0-1.232-.511l-.639 1.54a.669.669 0 0 0 .616.923.67.67 0 0 0 .616-.412zM28 16H4c-.736 0-1.333 1.333-1.333 1.333s.289.959.713 1.181c.403.212.62.667.62 1.123v5.696c0 .737 1.333 1.333 1.333 1.333s1.333-.596 1.333-1.333V20c0-.736 1.333-1.333 1.333-1.333s1.333.597 1.333 1.333v2.667c0 .737 1.333 1.333 1.333 1.333s1.333-.596 1.333-1.333V20c0-.736 1.333-1.333 1.333-1.333s1.333.597 1.333 1.333v8c0 .737 1.333 1.333 1.333 1.333S17.33 28.737 17.33 28v-8c0-.736 1.333-1.333 1.333-1.333s1.333.597 1.333 1.333v2.667c0 .737 1.333 1.333 1.333 1.333s1.333-.596 1.333-1.333V20c0-.736 1.333-1.333 1.333-1.333s1.333.597 1.333 1.333v5.333c0 .737 1.333 1.333 1.333 1.333s1.333-.596 1.333-1.333v-5.696c0-.456.216-.911.62-1.123.424-.223.713-1.181.713-1.181S28.73 16 27.994 16z"/></symbol><symbol id="freezing_rain_heavy" viewBox="0 0 32 32"><path d="M28 16H4c-.736 0-1.333 1.333-1.333 1.333s.289.959.713 1.181c.403.212.62.667.62 1.123v5.696c0 .737 1.333 1.333 1.333 1.333s1.333-.596 1.333-1.333V20c0-.736 1.333-1.333 1.333-1.333s1.333.597 1.333 1.333v5.333c0 .737 1.333 1.333 1.333 1.333s1.333-.596 1.333-1.333V20c0-.736 1.333-1.333 1.333-1.333s1.333.597 1.333 1.333v8c0 .737 1.333 1.333 1.333 1.333S17.33 28.737 17.33 28v-8c0-.736 1.333-1.333 1.333-1.333s1.333.597 1.333 1.333v5.333c0 .737 1.333 1.333 1.333 1.333s1.333-.596 1.333-1.333V20c0-.736 1.333-1.333 1.333-1.333s1.333.597 1.333 1.333v5.333c0 .737 1.333 1.333 1.333 1.333s1.333-.596 1.333-1.333v-5.696c0-.456.216-.911.62-1.123.424-.223.713-1.181.713-1.181S28.73 16 27.994 16zm-2.654-2.917a.667.667 0 0 1-.361-.871l2.68-6.467a.667.667 0 0 1 1.232.51l-2.68 6.467a.667.667 0 0 1-.871.361zm-19.053-.359 2.68-6.466a.667.667 0 0 0-1.232-.51l-2.68 6.467a.667.667 0 0 0 1.232.51zm4.981 0 2.68-6.467a.667.667 0 0 0-1.232-.51l-2.68 6.467a.667.667 0 0 0 1.232.51zm4.981-.001 2.68-6.467a.667.667 0 0 0-1.232-.51l-2.68 6.467a.667.667 0 0 0 1.232.51zm4.981 0 2.68-6.467a.667.667 0 0 0-1.232-.51l-2.68 6.467a.667.667 0 0 0 1.232.51zm2.49 0 .968-2.337a.666.666 0 1 0-1.232-.51l-.968 2.337a.667.667 0 0 0 1.232.51zm-4.981 0 .968-2.337a.667.667 0 0 0-1.232-.51l-.968 2.337a.667.667 0 0 0 1.232.51zm-4.981.001.968-2.337a.667.667 0 0 0-1.232-.51l-.968 2.337a.667.667 0 0 0 1.232.51zm-4.981 0 .968-2.337a.667.667 0 0 0-1.232-.51l-.968 2.337a.667.667 0 0 0 1.232.51zm16.805-4.493.818-1.974a.667.667 0 0 0-1.232-.51l-.818 1.974a.667.667 0 0 0 1.232.51zm-4.981 0 .818-1.974a.667.667 0 0 0-1.232-.51l-.818 1.974a.667.667 0 1 0 1.232.51zm-4.981 0 .818-1.974a.667.667 0 0 0-1.232-.51l-.818 1.975a.667.667 0 0 0 1.232.51zm-4.981.001.818-1.974a.667.667 0 0 0-1.232-.51l-.818 1.975a.666.666 0 1 0 1.232.51z"/></symbol><symbol id="mostly_clear_day" viewBox="0 0 32 32"><path d="M15.095 4.71a.667.667 0 0 1-.871-.361l-1.021-2.464a.667.667 0 0 1 1.232-.51l1.021 2.464a.667.667 0 0 1-.361.871zm15.89 3.521a.667.667 0 0 1-.361.871l-2.464 1.021a.667.667 0 0 1-.51-1.232l2.464-1.021c.34-.141.73.021.871.361zM22.239 4.71a.667.667 0 0 1-.361-.871l1.021-2.464a.667.667 0 0 1 1.232.51L23.11 4.349a.667.667 0 0 1-.871.361zM10.044 9.762a.667.667 0 0 1-.871.361L6.709 9.102a.667.667 0 0 1 .51-1.232l2.464 1.021c.34.141.502.531.361.871zm20.941 8.674a.667.667 0 0 1-.871.361l-2.464-1.021a.667.667 0 0 1 .51-1.232l2.464 1.021c.34.141.502.531.361.871z"/><path d="M15.095 4.711a.667.667 0 0 1-.871-.361l-1.021-2.464a.667.667 0 0 1 1.232-.51l1.021 2.464a.667.667 0 0 1-.361.871zm15.89 3.52a.667.667 0 0 1-.361.871l-2.464 1.021a.667.667 0 0 1-.51-1.232l2.464-1.021c.34-.141.73.021.871.361zm-8.746-3.52a.667.667 0 0 1-.361-.871l1.021-2.464a.667.667 0 0 1 1.232.51L23.11 4.35a.667.667 0 0 1-.871.361zM10.044 9.762a.667.667 0 0 1-.871.361L6.709 9.102a.667.667 0 0 1 .51-1.232l2.464 1.021c.34.141.502.531.361.871zm1.957 2.905c.022 0 .044.005.066.006.337-3.362 3.15-6.006 6.6-6.006a6.675 6.675 0 0 1 6.667 6.667c0 3.03-2.045 5.565-4.817 6.373l.007.028.505.016a5.156 5.156 0 0 1 1.812.399c2.292-1.407 3.827-3.929 3.827-6.816a8 8 0 0 0-8-8c-4.23 0-7.685 3.286-7.972 7.443a8.648 8.648 0 0 1 1.305-.109z"/><path d="M12 13.334a7.976 7.976 0 0 1 7.755 6.071l.243.98 1.009.032a4.44 4.44 0 0 1 4.326 4.45 4.472 4.472 0 0 1-4.467 4.467H4.333c-1.654 0-3-1.346-3-3 0-1.228.74-2.319 1.884-2.779l.932-.375-.103-.999A8.207 8.207 0 0 1 4 21.334c0-4.411 3.589-8 8-8zM12 12a9.332 9.332 0 0 0-9.28 10.317 4.329 4.329 0 0 0 1.613 8.349h16.533a5.8 5.8 0 0 0 5.8-5.8c0-3.141-2.5-5.684-5.617-5.783-1.007-4.067-4.671-7.084-9.049-7.084z"/></symbol><symbol id="rain" viewBox="0 0 32 32"><path d="M14.666 4a7.976 7.976 0 0 1 7.755 6.071l.243.98 1.009.032a4.44 4.44 0 0 1 4.326 4.45A4.472 4.472 0 0 1 23.532 20H6.999c-1.654 0-3-1.346-3-3 0-1.228.74-2.319 1.884-2.779l.932-.375-.103-1a8.207 8.207 0 0 1-.046-.847c0-4.411 3.589-8 8-8zm0-1.333a9.332 9.332 0 0 0-9.28 10.317 4.329 4.329 0 0 0 1.613 8.349h16.533a5.8 5.8 0 0 0 5.8-5.8c0-3.141-2.5-5.684-5.617-5.783-1.007-4.067-4.671-7.084-9.049-7.084zm.713 22.72a.668.668 0 0 1-.616-.922l.638-1.54a.668.668 0 0 1 1.232.51l-.638 1.54a.666.666 0 0 1-.616.411zm-4.366-.412.638-1.54a.667.667 0 1 0-1.232-.51l-.638 1.54a.667.667 0 0 0 1.232.511zm1.529 3.828.638-1.54a.667.667 0 1 0-1.232-.51l-.638 1.54a.667.667 0 0 0 1.232.511zm-4.991-.001.637-1.54a.665.665 0 1 0-1.232-.509l-.637 1.54a.665.665 0 1 0 1.232.509zm-1.518-3.827.638-1.54a.666.666 0 1 0-1.232-.51l-.638 1.54a.666.666 0 1 0 1.232.511zm19.924 0 .638-1.54a.667.667 0 1 0-1.232-.51l-.638 1.54a.667.667 0 0 0 1.232.511zm-4.982 0 .638-1.54a.667.667 0 1 0-1.232-.51l-.638 1.54a.667.667 0 0 0 1.232.511zm1.551 3.827.637-1.54a.665.665 0 1 0-1.232-.509l-.637 1.54a.665.665 0 1 0 1.232.509zm-4.992.001.638-1.54a.667.667 0 1 0-1.232-.51l-.638 1.54a.667.667 0 0 0 1.232.511z"/></symbol><symbol id="rain_heavy" viewBox="0 0 32 32"><path d="M23.015 29.555a.667.667 0 0 1-.361-.871l2.169-5.235a.667.667 0 0 1 1.232.51l-2.169 5.235a.667.667 0 0 1-.871.361zm-19.053-.359 2.169-5.235a.667.667 0 0 0-1.232-.51L2.73 28.686a.667.667 0 0 0 1.232.51zm4.981 0 2.169-5.235a.667.667 0 0 0-1.232-.51l-2.169 5.235a.667.667 0 0 0 1.232.51zm4.981-.001 2.169-5.235a.667.667 0 0 0-1.232-.51l-2.169 5.235a.667.667 0 0 0 1.232.51zm4.981 0 2.17-5.235a.667.667 0 0 0-1.232-.51l-2.17 5.235a.667.667 0 0 0 1.232.51zm2.491 0 .458-1.105a.666.666 0 1 0-1.232-.51l-.458 1.105a.667.667 0 0 0 1.232.51zm-4.981 0 .458-1.105a.667.667 0 0 0-1.232-.51l-.458 1.105a.667.667 0 0 0 1.232.51zm-4.981.001.458-1.105a.667.667 0 0 0-1.232-.51l-.458 1.105a.667.667 0 0 0 1.232.51zm-4.981 0 .458-1.105a.667.667 0 0 0-1.232-.51l-.458 1.105a.667.667 0 0 0 1.232.51zm16.294-3.262.818-1.974a.667.667 0 0 0-1.232-.51l-.818 1.974a.667.667 0 0 0 1.232.51zm-4.981.001.818-1.974a.667.667 0 0 0-1.232-.51l-.818 1.974a.667.667 0 1 0 1.232.51zm-4.981 0 .818-1.974a.667.667 0 0 0-1.232-.51l-.818 1.975a.667.667 0 0 0 1.232.51zm-4.981 0 .818-1.974a.667.667 0 0 0-1.232-.51l-.818 1.974a.667.667 0 1 0 1.232.51zm6.862-21.936a7.976 7.976 0 0 1 7.755 6.071l.243.98 1.009.032a4.44 4.44 0 0 1 4.326 4.45 4.472 4.472 0 0 1-4.467 4.467H6.999c-1.654 0-3-1.346-3-3 0-1.228.74-2.319 1.884-2.779l.932-.375-.103-.999a8.207 8.207 0 0 1-.046-.847c0-4.411 3.589-8 8-8zm0-1.333a9.332 9.332 0 0 0-9.28 10.317 4.329 4.329 0 0 0 1.613 8.349h16.533a5.8 5.8 0 0 0 5.8-5.8c0-3.141-2.5-5.684-5.617-5.783-1.007-4.067-4.671-7.084-9.049-7.084z"/></symbol><symbol id="rain_light" viewBox="0 0 32 32"><path d="M15.379 26.72a.667.667 0 0 1-.616-.922l.637-1.54a.668.668 0 1 1 1.232.511l-.637 1.539a.668.668 0 0 1-.616.412zm-9.347-.412.639-1.54a.667.667 0 0 0-1.232-.511L4.8 25.798a.668.668 0 0 0 .616.922.668.668 0 0 0 .616-.412zm19.924 0 .639-1.539a.669.669 0 0 0-.361-.872.67.67 0 0 0-.871.361l-.637 1.54a.667.667 0 0 0 1.231.51zm-14.942 0 .637-1.539a.668.668 0 0 0-1.231-.511l-.639 1.54a.668.668 0 0 0 .616.922.668.668 0 0 0 .616-.412zm9.962 0 .637-1.539a.668.668 0 0 0-.36-.872.67.67 0 0 0-.872.361l-.637 1.54a.667.667 0 0 0 1.232.51zM14.667 4a7.976 7.976 0 0 1 7.755 6.071l.243.98 1.009.032A4.44 4.44 0 0 1 28 15.533 4.472 4.472 0 0 1 23.533 20H7c-1.654 0-3-1.346-3-3 0-1.228.74-2.319 1.884-2.779l.932-.375-.103-.999A8.207 8.207 0 0 1 6.667 12c0-4.411 3.589-8 8-8zm0-1.333a9.332 9.332 0 0 0-9.28 10.317A4.329 4.329 0 0 0 7 21.333h16.533a5.8 5.8 0 0 0 5.8-5.8c0-3.141-2.5-5.684-5.617-5.783-1.007-4.067-4.671-7.084-9.049-7.084z"/></symbol><symbol id="snow" viewBox="0 0 32 32"><path d="M14.667 4a7.976 7.976 0 0 1 7.755 6.071l.243.98 1.009.032A4.44 4.44 0 0 1 28 15.533 4.472 4.472 0 0 1 23.533 20H7c-1.654 0-3-1.346-3-3 0-1.228.74-2.319 1.884-2.779l.932-.375-.103-.999A8.207 8.207 0 0 1 6.667 12c0-4.411 3.589-8 8-8zm0-1.333a9.332 9.332 0 0 0-9.28 10.317A4.329 4.329 0 0 0 7 21.333h16.533a5.8 5.8 0 0 0 5.8-5.8c0-3.141-2.5-5.684-5.617-5.783-1.007-4.067-4.671-7.084-9.049-7.084zM8.426 26.213l-1.089.629 1.089.629a.666.666 0 1 1-.667 1.155l-1.089-.628v1.257a.666.666 0 1 1-1.334 0v-1.258l-1.09.629a.667.667 0 0 1-.667-1.155l1.089-.629-1.089-.629a.666.666 0 1 1 .667-1.155l1.09.629v-1.258a.666.666 0 1 1 1.334 0v1.257l1.089-.628a.666.666 0 1 1 .667 1.155zm19.993 1.258-1.089-.629 1.089-.629a.666.666 0 0 0 .243-.911.665.665 0 0 0-.91-.244l-1.09.629v-1.258a.666.666 0 1 0-1.334 0v1.257l-1.089-.628a.668.668 0 0 0-.667 1.155l1.089.629-1.089.629a.666.666 0 1 0 .667 1.155l1.089-.628v1.257a.666.666 0 1 0 1.334 0v-1.258l1.09.629a.667.667 0 0 0 .667-1.155zm-9.753-2.168a.664.664 0 0 0-.91-.244l-1.089.628V24.43a.666.666 0 1 0-1.334 0v1.258l-1.09-.629a.668.668 0 0 0-.667 1.155l1.089.629-1.089.629a.666.666 0 1 0 .667 1.155l1.09-.629v1.258a.666.666 0 1 0 1.334 0v-1.257l1.089.628a.667.667 0 0 0 .667-1.155l-1.089-.629 1.089-.629a.666.666 0 0 0 .243-.911z"/></symbol><symbol id="snow_heavy" viewBox="0 0 32 32"><path d="M14.666 1.333a7.976 7.976 0 0 1 7.755 6.071l.243.98 1.009.032a4.44 4.44 0 0 1 4.326 4.45 4.472 4.472 0 0 1-4.467 4.467H6.999c-1.654 0-3-1.346-3-3 0-1.228.74-2.319 1.884-2.779l.932-.375-.103-.999a8.207 8.207 0 0 1-.046-.847c0-4.411 3.589-8 8-8zm0-1.333a9.332 9.332 0 0 0-9.28 10.317 4.329 4.329 0 0 0 1.613 8.349h16.533a5.8 5.8 0 0 0 5.8-5.8c0-3.141-2.5-5.684-5.617-5.783-1.007-4.067-4.671-7.084-9.049-7.084zM8.671 24.381a.664.664 0 0 1-.91.244l-1.09-.629v1.258a.666.666 0 1 1-1.334 0v-1.257l-1.089.628a.667.667 0 0 1-.667-1.155l1.089-.629-1.089-.629a.666.666 0 1 1 .667-1.155l1.089.628v-1.257a.666.666 0 1 1 1.334 0v1.258l1.09-.629a.666.666 0 1 1 .667 1.155l-1.089.629 1.089.629a.666.666 0 0 1 .243.911zm19.747-.91-1.089-.629 1.089-.629a.666.666 0 1 0-.667-1.155l-1.089.628v-1.257a.666.666 0 1 0-1.334 0v1.258l-1.09-.629a.667.667 0 0 0-.667 1.155l1.089.629-1.089.629a.666.666 0 1 0 .667 1.155l1.09-.629v1.258a.666.666 0 1 0 1.334 0v-1.257l1.089.628a.667.667 0 0 0 .667-1.155zm-9.996 0-1.089-.629 1.089-.629a.666.666 0 0 0 .243-.911.664.664 0 0 0-.91-.244l-1.089.628v-1.257a.666.666 0 1 0-1.334 0v1.257l-1.089-.629a.667.667 0 0 0-.667 1.155l1.089.629-1.089.629a.666.666 0 1 0 .667 1.155l1.089-.629v1.257a.666.666 0 1 0 1.334 0v-1.257l1.089.629a.665.665 0 0 0 .91-.244.666.666 0 0 0-.243-.911zm-4.754 2.97a.665.665 0 0 0-.91-.244l-1.089.628v-1.257a.666.666 0 1 0-1.334 0v1.258l-1.09-.629a.667.667 0 0 0-.667 1.155l1.089.629-1.089.629a.666.666 0 1 0 .667 1.155l1.09-.629v1.258a.666.666 0 1 0 1.334 0v-1.257l1.089.628a.667.667 0 0 0 .667-1.155l-1.089-.629 1.089-.629a.666.666 0 0 0 .243-.911zm9.996 0a.666.666 0 0 0-.91-.244l-1.09.629v-1.258a.666.666 0 1 0-1.334 0v1.257l-1.089-.628a.667.667 0 0 0-.667 1.155l1.089.629-1.089.629a.666.666 0 1 0 .667 1.155l1.089-.628v1.257a.666.666 0 1 0 1.334 0v-1.258l1.09.629a.667.667 0 0 0 .667-1.155l-1.089-.629 1.089-.629a.666.666 0 0 0 .243-.911z"/></symbol><symbol id="snow_light" viewBox="0 0 32 32"><path d="M14.667 4a7.976 7.976 0 0 1 7.755 6.071l.243.98 1.009.032A4.44 4.44 0 0 1 28 15.533 4.472 4.472 0 0 1 23.533 20H7c-1.654 0-3-1.346-3-3 0-1.228.74-2.319 1.884-2.779l.932-.375-.103-.999A8.207 8.207 0 0 1 6.667 12c0-4.411 3.589-8 8-8zm0-1.333a9.332 9.332 0 0 0-9.28 10.317A4.329 4.329 0 0 0 7 21.333h16.533a5.8 5.8 0 0 0 5.8-5.8c0-3.141-2.5-5.684-5.617-5.783-1.007-4.067-4.671-7.084-9.049-7.084zm3.755 23.547-1.089.629 1.089.629a.666.666 0 0 1 .243.911.664.664 0 0 1-.91.244l-1.089-.629v1.257a.666.666 0 1 1-1.334 0v-1.257l-1.089.629a.668.668 0 0 1-.667-1.155l1.089-.629-1.089-.629a.666.666 0 1 1 .667-1.155l1.089.629v-1.257a.666.666 0 1 1 1.334 0v1.257l1.089-.629a.665.665 0 0 1 .91.244.666.666 0 0 1-.243.911zm4.907-.705a1.333 1.333 0 1 0 0 2.667 1.333 1.333 0 0 0 0-2.667zm-14.658 0a1.333 1.333 0 1 0 0 2.667 1.333 1.333 0 0 0 0-2.667z"/></symbol><symbol id="tstorm" viewBox="0 0 32 32"><path d="M22.356 29.557a.667.667 0 0 1-.361-.871l2.169-5.235a.667.667 0 0 1 1.232.51l-2.169 5.235a.667.667 0 0 1-.871.361zm-18.386-.36 2.169-5.235a.667.667 0 0 0-1.232-.51l-2.169 5.235a.667.667 0 0 0 1.232.51zm4.981 0 2.169-5.235a.667.667 0 0 0-1.232-.51l-2.169 5.235a.667.667 0 0 0 1.232.51zm11.785-.001.458-1.105a.666.666 0 1 0-1.232-.51l-.458 1.105a.667.667 0 0 0 1.232.51zm-9.295 0 .458-1.105a.667.667 0 0 0-1.232-.51l-.458 1.105a.667.667 0 0 0 1.232.51zm-4.981.001.458-1.105a.667.667 0 0 0-1.232-.51l-.458 1.105a.667.667 0 0 0 1.232.51zm15.628-3.262.818-1.974a.667.667 0 0 0-1.232-.51l-.818 1.974a.667.667 0 0 0 1.232.51zm-14.277.001.818-1.974a.667.667 0 0 0-1.232-.51l-.818 1.974a.667.667 0 1 0 1.232.51z"/><path d="M20.85 18.266h-3.994l.712-4.255a.88.88 0 0 0-.868-1.025h-4.332a.88.88 0 0 0-.87.746l-1.22 7.921a.88.88 0 0 0 .87 1.014h3.355l-.133.995-.728 5.271a.88.88 0 0 0 .309.797c.145.106.145.106.31.172a.88.88 0 0 0 1.021-.362l6.311-9.921a.88.88 0 0 0-.742-1.352z"/><path d="M23.716 9.751c-1.007-4.067-4.671-7.084-9.049-7.084a9.332 9.332 0 0 0-9.28 10.317A4.329 4.329 0 0 0 7 21.333h1.979L9.184 20H6.999c-1.654 0-3-1.346-3-3 0-1.228.74-2.319 1.884-2.779l.932-.375-.103-.999A8.221 8.221 0 0 1 6.666 12c0-4.411 3.589-8 8-8a7.976 7.976 0 0 1 7.755 6.071l.243.98 1.009.032a4.44 4.44 0 0 1 4.326 4.45A4.472 4.472 0 0 1 23.532 20h-.662c-.047.113-.087.229-.154.334l-.635.999h1.451a5.8 5.8 0 0 0 5.8-5.8c0-3.141-2.5-5.684-5.617-5.782z"/><path d="M32 11.443c0-2.468-1.875-4.466-4.213-4.544-.755-3.195-3.503-5.566-6.787-5.566-1.917 0-3.645.814-4.907 2.123l1.457.478c.956-.787 2.147-1.268 3.45-1.268 2.6 0 4.857 1.867 5.488 4.54l.236.992 1.018.034c1.639.054 2.925 1.465 2.925 3.211 0 1.409-.855 2.596-2.036 3.034l.208 1.32C30.66 15.256 32 13.524 32 11.443z"/></symbol><symbol id="spinner" viewBox="0 0 32 32"><path d="M16 32c-4.274 0-8.292-1.664-11.314-4.686S0 20.274 0 16c0-3.026.849-5.973 2.456-8.522a16.061 16.061 0 0 1 6.386-5.791l1.344 2.682a13.044 13.044 0 0 0-5.192 4.708A12.953 12.953 0 0 0 3 15.999c0 7.168 5.832 13 13 13s13-5.832 13-13c0-2.459-.69-4.853-1.994-6.922a13.051 13.051 0 0 0-5.192-4.708l1.344-2.682a16.047 16.047 0 0 1 6.386 5.791A15.953 15.953 0 0 1 32 16c0 4.274-1.664 8.292-4.686 11.314S20.274 32 16 32z"/></symbol></defs></svg>