<svg aria-hidden="true" style="position: absolute; width: 0; height: 0; overflow: hidden;" version="1.1" xmlns="http://www.w3.org/2000/svg" xmlns:xlink="http://www.w3.org/1999/xlink">
<defs>
<symbol id="havyrain" viewBox="0 0 32 32">
<path d="M30.4 8h-1.28c-0.165-0.718-0.446-1.404-0.832-2.032l0.896-0.896c0.262-0.306 0.399-0.7 0.384-1.103s-0.182-0.785-0.467-1.070c-0.285-0.285-0.667-0.452-1.070-0.467s-0.796 0.121-1.102 0.384l-0.896 0.896c-0.628-0.386-1.314-0.667-2.032-0.832v-1.28c0-0.424-0.169-0.831-0.469-1.131s-0.707-0.469-1.131-0.469c-0.424 0-0.831 0.169-1.131 0.469s-0.469 0.707-0.469 1.131v1.28c-0.714 0.163-1.395 0.444-2.016 0.832l-0.912-0.896c-0.306-0.262-0.7-0.399-1.102-0.384s-0.785 0.183-1.070 0.467c-0.285 0.285-0.452 0.667-0.467 1.070s0.121 0.796 0.383 1.103l0.896 0.912c-0.144 0.24-0.256 0.512-0.384 0.768-0.823-0.232-1.673-0.351-2.528-0.352-2.306-0.001-4.535 0.827-6.28 2.334s-2.889 3.592-3.224 5.873c-1.114 0.31-2.105 0.958-2.836 1.854s-1.167 1.997-1.248 3.15 0.198 2.304 0.797 3.293c0.599 0.989 1.49 1.768 2.551 2.23 0.204 0.081 0.421 0.124 0.64 0.128 0.37 0.003 0.729-0.122 1.017-0.354s0.487-0.557 0.562-0.919c0.075-0.362 0.023-0.739-0.148-1.067s-0.451-0.586-0.791-0.731c-0.429-0.183-0.795-0.488-1.051-0.878s-0.391-0.847-0.389-1.314c0-0.637 0.253-1.247 0.703-1.697s1.060-0.703 1.697-0.703c0.424 0 0.831-0.169 1.131-0.469s0.469-0.707 0.469-1.131c0.007-1.511 0.548-2.971 1.528-4.121s2.335-1.917 3.825-2.164c1.49-0.247 3.020 0.041 4.319 0.813s2.282 1.979 2.776 3.407c0.091 0.275 0.256 0.52 0.476 0.709s0.487 0.314 0.772 0.363c0.743 0.11 1.435 0.443 1.985 0.955s0.931 1.179 1.094 1.912c0.163 0.733 0.1 1.499-0.182 2.195s-0.767 1.291-1.394 1.706c-0.356 0.233-0.606 0.599-0.693 1.016s-0.005 0.852 0.229 1.208c0.233 0.356 0.599 0.606 1.016 0.693s0.852 0.005 1.208-0.229c0.943-0.641 1.714-1.505 2.245-2.516s0.803-2.136 0.795-3.276c-0.001-0.85-0.164-1.691-0.48-2.48l0.208 0.192c0.298 0.296 0.7 0.462 1.12 0.464 0.211 0.001 0.419-0.039 0.614-0.119s0.372-0.197 0.522-0.345c0.298-0.3 0.465-0.705 0.465-1.128s-0.167-0.828-0.465-1.128l-0.896-0.896c0.386-0.628 0.667-1.314 0.832-2.032h1.28c0.424 0 0.831-0.169 1.131-0.469s0.469-0.707 0.469-1.131-0.169-0.831-0.469-1.131c-0.3-0.3-0.707-0.469-1.131-0.469zM25.056 12.24c-0.278 0.279-0.603 0.506-0.96 0.672-0.522-0.362-1.093-0.647-1.696-0.848-0.735-1.605-1.89-2.982-3.344-3.984 0.178-0.413 0.427-0.792 0.736-1.12 0.718-0.665 1.661-1.034 2.64-1.034s1.921 0.369 2.64 1.034c0.686 0.708 1.070 1.654 1.070 2.64s-0.384 1.932-1.070 2.64h-0.016zM10.401 19.2c-0.424 0-0.831 0.169-1.131 0.469s-0.469 0.707-0.469 1.131v9.6c0 0.424 0.169 0.831 0.469 1.131s0.707 0.469 1.131 0.469c0.424 0 0.831-0.169 1.131-0.469s0.469-0.707 0.469-1.131v-9.6c0-0.424-0.169-0.831-0.469-1.131s-0.707-0.469-1.131-0.469zM16.801 17.6c-0.424 0-0.831 0.169-1.131 0.469s-0.469 0.707-0.469 1.131v9.6c0 0.424 0.169 0.831 0.469 1.131s0.707 0.469 1.131 0.469c0.424 0 0.831-0.169 1.131-0.469s0.469-0.707 0.469-1.131v-9.6c0-0.424-0.169-0.831-0.469-1.131s-0.707-0.469-1.131-0.469z"></path>
</symbol>
<symbol id="lightrain" viewBox="0 0 32 32">
<path d="M14.481 19.679c-0.263-0.173-0.572-0.265-0.888-0.265s-0.625 0.092-0.888 0.265c-0.16 0.126-3.904 2.637-3.904 6.584 0 1.256 0.506 2.461 1.406 3.349s2.121 1.387 3.394 1.387c1.273 0 2.494-0.499 3.394-1.387s1.406-2.093 1.406-3.349c0-3.947-3.744-6.474-3.92-6.584zM13.601 27.842c-0.424 0-0.831-0.166-1.131-0.462s-0.469-0.698-0.469-1.116c0.101-1.217 0.674-2.348 1.6-3.158 0.926 0.81 1.499 1.941 1.6 3.158 0 0.419-0.169 0.82-0.469 1.116s-0.707 0.462-1.131 0.462zM30.4 8.895h-1.28c-0.165-0.709-0.446-1.386-0.832-2.005l0.896-0.884c0.262-0.302 0.399-0.691 0.384-1.088s-0.182-0.774-0.467-1.056c-0.285-0.281-0.667-0.446-1.070-0.461s-0.796 0.12-1.102 0.378l-0.896 0.884c-0.628-0.38-1.314-0.658-2.032-0.821v-1.263c0-0.419-0.169-0.82-0.469-1.116s-0.707-0.462-1.131-0.462c-0.424 0-0.831 0.166-1.131 0.462s-0.469 0.698-0.469 1.116v1.263c-0.714 0.161-1.395 0.438-2.016 0.821l-0.912-0.884c-0.306-0.259-0.7-0.394-1.102-0.378s-0.785 0.18-1.070 0.461c-0.285 0.281-0.452 0.658-0.467 1.056s0.121 0.786 0.383 1.088l0.896 0.9c-0.144 0.237-0.256 0.505-0.384 0.758-0.823-0.229-1.673-0.346-2.528-0.347-2.306-0.001-4.535 0.816-6.28 2.304s-2.889 3.545-3.224 5.796c-1.114 0.306-2.105 0.945-2.836 1.829s-1.167 1.97-1.248 3.109c-0.081 1.139 0.198 2.274 0.797 3.25s1.49 1.745 2.551 2.201c0.204 0.080 0.421 0.123 0.64 0.126 0.37 0.003 0.729-0.121 1.017-0.35s0.487-0.55 0.562-0.907c0.075-0.357 0.023-0.73-0.148-1.053s-0.451-0.579-0.791-0.722c-0.429-0.18-0.795-0.482-1.051-0.867s-0.391-0.836-0.389-1.296c0-0.628 0.253-1.231 0.703-1.675s1.060-0.694 1.697-0.694c0.424 0 0.831-0.166 1.131-0.462s0.469-0.698 0.469-1.116c0.007-1.491 0.548-2.931 1.528-4.067s2.335-1.892 3.825-2.135c1.49-0.244 3.020 0.040 4.319 0.803s2.282 1.953 2.776 3.362c0.091 0.271 0.256 0.513 0.476 0.699s0.487 0.31 0.772 0.359c0.743 0.109 1.435 0.437 1.985 0.942s0.931 1.163 1.094 1.887 0.1 1.479-0.182 2.167c-0.281 0.687-0.767 1.274-1.394 1.683-0.356 0.23-0.606 0.591-0.693 1.003s-0.005 0.84 0.229 1.192c0.233 0.352 0.599 0.598 1.016 0.683s0.852 0.005 1.208-0.226c1.327-0.855 2.315-2.135 2.796-3.625s0.426-3.099-0.156-4.553l0.208 0.205c0.298 0.292 0.7 0.456 1.12 0.458 0.211 0.001 0.419-0.039 0.614-0.117s0.372-0.194 0.522-0.341c0.298-0.296 0.465-0.696 0.465-1.113s-0.167-0.817-0.465-1.113l-0.896-0.884c0.358-0.624 0.611-1.302 0.752-2.005h1.28c0.424 0 0.831-0.166 1.131-0.463s0.469-0.698 0.469-1.116c0-0.419-0.169-0.82-0.469-1.117s-0.707-0.462-1.131-0.462zM25.056 13.079c-0.286 0.262-0.609 0.48-0.96 0.647-0.519-0.374-1.090-0.672-1.696-0.884-0.735-1.584-1.89-2.942-3.344-3.932 0.175-0.405 0.424-0.774 0.736-1.090 0.716-0.655 1.656-1.019 2.632-1.019s1.916 0.364 2.632 1.019c0.686 0.698 1.070 1.633 1.070 2.605s-0.384 1.907-1.070 2.605v0.047z"></path>
</symbol>
<symbol id="mainlycloudy" viewBox="0 0 40 32">
<path d="M37.531 10h-1.576c-0.204-0.898-0.55-1.755-1.024-2.54l1.103-1.12c0.323-0.383 0.491-0.875 0.472-1.378s-0.225-0.981-0.576-1.337-0.821-0.565-1.317-0.584c-0.496-0.020-0.98 0.152-1.357 0.48l-1.103 1.12c-0.773-0.482-1.618-0.833-2.502-1.040v-1.6c0-0.53-0.208-1.039-0.577-1.414s-0.87-0.586-1.393-0.586c-0.522 0-1.024 0.211-1.393 0.586s-0.577 0.884-0.577 1.414v1.6c-0.879 0.204-1.718 0.555-2.482 1.040l-1.123-1.12c-0.377-0.328-0.862-0.499-1.357-0.48s-0.966 0.228-1.317 0.584c-0.351 0.356-0.556 0.834-0.576 1.337s0.15 0.996 0.472 1.378l1.103 1.14c-0.177 0.3-0.315 0.64-0.473 0.96-1.013-0.29-2.060-0.438-3.112-0.44-2.839-0.002-5.583 1.034-7.732 2.918s-3.557 4.49-3.969 7.342c-1.603 0.456-2.989 1.486-3.902 2.9s-1.292 3.114-1.066 4.789c0.226 1.675 1.040 3.21 2.294 4.322s2.862 1.726 4.526 1.729h18.062c2.262 0 4.431-0.912 6.031-2.536s2.498-3.827 2.498-6.124c-0.002-1.062-0.202-2.114-0.591-3.1l0.256 0.24c0.367 0.37 0.862 0.578 1.379 0.58 0.259 0.002 0.516-0.049 0.756-0.148s0.458-0.246 0.642-0.432c0.367-0.375 0.573-0.882 0.573-1.41s-0.206-1.035-0.573-1.41l-1.103-1.12c0.475-0.785 0.821-1.642 1.024-2.54h1.576c0.522 0 1.023-0.211 1.393-0.586s0.577-0.884 0.577-1.414c0-0.53-0.208-1.039-0.577-1.414s-0.87-0.586-1.393-0.586zM25.062 28h-18.062c-0.784 0-1.535-0.316-2.089-0.879s-0.865-1.326-0.865-2.121 0.311-1.559 0.865-2.121c0.554-0.563 1.306-0.879 2.089-0.879 0.522 0 1.024-0.211 1.393-0.586s0.577-0.884 0.577-1.414c0.008-1.889 0.675-3.713 1.881-5.151s2.874-2.396 4.709-2.705c1.835-0.309 3.718 0.051 5.317 1.017s2.809 2.474 3.418 4.259c0.113 0.344 0.315 0.65 0.586 0.886s0.599 0.393 0.951 0.454c1.118 0.212 2.118 0.838 2.808 1.757s1.018 2.064 0.922 3.215c-0.096 1.151-0.609 2.224-1.44 3.013s-1.921 1.236-3.058 1.254zM30.972 15.3c-0.347 0.332-0.747 0.602-1.182 0.8-0.655-0.433-1.364-0.776-2.108-1.020-0.905-2.006-2.328-3.727-4.117-4.98 0.215-0.513 0.522-0.981 0.906-1.38 0.881-0.829 2.038-1.29 3.24-1.29s2.359 0.461 3.24 1.29c0.845 0.884 1.317 2.068 1.317 3.3s-0.472 2.416-1.317 3.3l0.020-0.020z"></path>
</symbol>
<symbol id="rainy" viewBox="0 0 32 32">
<path d="M9.456 20.364c-0.386 0-0.756 0.153-1.028 0.426s-0.426 0.643-0.426 1.029v1.455c0 0.386 0.153 0.756 0.426 1.029s0.643 0.426 1.028 0.426 0.756-0.153 1.028-0.426c0.273-0.273 0.426-0.643 0.426-1.029v-1.455c0-0.386-0.153-0.756-0.426-1.029s-0.643-0.426-1.028-0.426zM30.546 8.727h-1.6c-0.194-0.911-0.554-1.779-1.062-2.56l1.207-1.12c0.274-0.274 0.428-0.645 0.428-1.033s-0.154-0.759-0.428-1.033c-0.274-0.274-0.645-0.428-1.033-0.428s-0.759 0.154-1.033 0.428l-1.12 1.135c-0.799-0.523-1.694-0.884-2.633-1.062v-1.6c0-0.386-0.153-0.756-0.426-1.029s-0.643-0.426-1.028-0.426-0.756 0.153-1.028 0.426c-0.273 0.273-0.426 0.643-0.426 1.029v1.6c-0.911 0.194-1.779 0.554-2.56 1.062l-1.12-1.135c-0.136-0.136-0.297-0.243-0.474-0.317s-0.367-0.111-0.559-0.111c-0.192 0-0.382 0.038-0.559 0.111s-0.338 0.181-0.474 0.317c-0.274 0.274-0.428 0.645-0.428 1.033s0.154 0.759 0.428 1.033l1.134 1.12c-0.577 0.879-0.959 1.871-1.12 2.909-0.737-0.22-1.5-0.337-2.269-0.349-2.096-0.001-4.123 0.752-5.709 2.122s-2.627 3.265-2.931 5.34c-1.013 0.282-1.913 0.871-2.578 1.685s-1.061 1.815-1.134 2.864c-0.073 1.049 0.18 2.095 0.725 2.994s1.355 1.608 2.319 2.028c0.185 0.073 0.382 0.113 0.582 0.116 0.336 0.003 0.663-0.111 0.925-0.322s0.442-0.506 0.511-0.836c0.069-0.329 0.021-0.672-0.135-0.97s-0.41-0.533-0.719-0.665c-0.39-0.166-0.723-0.444-0.956-0.799s-0.356-0.77-0.353-1.194c0-0.579 0.23-1.134 0.639-1.543s0.964-0.639 1.543-0.639c0.386 0 0.756-0.153 1.029-0.426s0.426-0.643 0.426-1.029c0.006-1.374 0.498-2.701 1.389-3.746s2.122-1.742 3.477-1.967c1.355-0.225 2.746 0.037 3.926 0.74s2.074 1.799 2.523 3.098c0.083 0.25 0.233 0.473 0.432 0.644s0.442 0.286 0.702 0.33c0.676 0.1 1.305 0.403 1.805 0.868s0.847 1.071 0.995 1.738c0.148 0.667 0.091 1.363-0.165 1.996s-0.698 1.174-1.267 1.551c-0.16 0.105-0.299 0.241-0.407 0.399s-0.184 0.337-0.223 0.524c-0.039 0.188-0.041 0.381-0.005 0.57s0.108 0.368 0.213 0.528c0.212 0.324 0.544 0.551 0.924 0.63 0.188 0.039 0.381 0.041 0.57 0.005s0.368-0.108 0.528-0.213c0.858-0.583 1.559-1.369 2.041-2.287s0.73-1.941 0.723-2.979c-0.005-0.968-0.228-1.923-0.655-2.793 0.621-0.204 1.212-0.487 1.76-0.844l1.12 1.135c0.131 0.152 0.292 0.276 0.474 0.363s0.379 0.135 0.579 0.142c0.201 0.007 0.401-0.028 0.588-0.102s0.356-0.187 0.497-0.33c0.136-0.135 0.245-0.296 0.318-0.473s0.112-0.367 0.112-0.559c0-0.192-0.038-0.382-0.112-0.559s-0.182-0.338-0.318-0.473l-1.134-1.12c0.498-0.805 0.834-1.699 0.989-2.633h1.6c0.386 0 0.756-0.153 1.028-0.426s0.426-0.643 0.426-1.029c0-0.386-0.153-0.756-0.426-1.028s-0.643-0.426-1.028-0.426zM24.917 13.265c-0.407 0.407-0.89 0.73-1.421 0.949s-1.102 0.332-1.677 0.331h-0.087c-0.453-0.287-0.942-0.512-1.454-0.669-0.645-1.392-1.649-2.587-2.909-3.462v-0.233c-0.003-1.155 0.452-2.264 1.265-3.084 0.836-0.788 1.942-1.226 3.091-1.226s2.254 0.439 3.091 1.226c0.407 0.405 0.73 0.887 0.95 1.418s0.334 1.099 0.334 1.673-0.113 1.143-0.334 1.673c-0.22 0.53-0.543 1.012-0.95 1.418l0.102-0.015zM9.456 27.636c-0.386 0-0.756 0.153-1.028 0.426s-0.426 0.643-0.426 1.029v1.455c0 0.386 0.153 0.756 0.426 1.029s0.643 0.426 1.028 0.426 0.756-0.153 1.028-0.426c0.273-0.273 0.426-0.643 0.426-1.029v-1.455c0-0.386-0.153-0.756-0.426-1.029s-0.643-0.426-1.028-0.426zM15.274 26.182c-0.386 0-0.756 0.153-1.028 0.426s-0.426 0.643-0.426 1.029v1.455c0 0.386 0.153 0.756 0.426 1.029s0.643 0.426 1.028 0.426 0.756-0.153 1.029-0.426c0.273-0.273 0.426-0.643 0.426-1.029v-1.455c0-0.386-0.153-0.756-0.426-1.029s-0.643-0.426-1.028-0.426zM15.274 18.909c-0.386 0-0.756 0.153-1.028 0.426s-0.426 0.643-0.426 1.029v1.455c0 0.386 0.153 0.756 0.426 1.029s0.643 0.426 1.028 0.426c0.386 0 0.756-0.153 1.029-0.426s0.426-0.643 0.426-1.029v-1.455c0-0.386-0.153-0.756-0.426-1.029s-0.643-0.426-1.028-0.426z"></path>
</symbol>
<symbol id="bell" viewBox="0 0 32 32">
<path d="M30.222 25.905v1.524h-28.444v-1.524l3.16-3.048v-9.143c0-4.724 3.208-8.884 7.901-10.225v-0.442c0-0.808 0.333-1.583 0.926-2.155s1.397-0.893 2.235-0.893c0.838 0 1.642 0.321 2.235 0.893s0.926 1.347 0.926 2.155v0.442c4.693 1.341 7.901 5.501 7.901 10.225v9.143l3.161 3.048zM19.16 28.952c0 0.808-0.333 1.583-0.926 2.155s-1.397 0.893-2.235 0.893c-0.838 0-1.642-0.321-2.235-0.893s-0.926-1.347-0.926-2.155z"></path>
</symbol>
<symbol id="location" viewBox="0 0 26 32">
<path d="M12.8 16c0.88 0 1.634-0.314 2.261-0.941s0.94-1.38 0.939-2.259c0-0.88-0.314-1.634-0.941-2.261s-1.38-0.94-2.259-0.939c-0.88 0-1.634 0.314-2.261 0.941s-0.94 1.38-0.939 2.259c0 0.88 0.314 1.634 0.941 2.261s1.38 0.94 2.259 0.939zM12.8 27.76c3.253-2.987 5.667-5.7 7.24-8.141s2.36-4.607 2.36-6.499c0-2.907-0.927-5.286-2.781-7.139s-4.127-2.78-6.819-2.781c-2.693 0-4.967 0.927-6.821 2.781s-2.78 4.234-2.779 7.139c0 1.893 0.787 4.060 2.36 6.501s3.987 5.154 7.24 8.139zM12.8 32c-4.293-3.653-7.5-7.046-9.619-10.179s-3.18-6.033-3.181-8.701c0-4 1.287-7.187 3.861-9.56s5.554-3.56 8.939-3.56c3.387 0 6.367 1.187 8.941 3.56s3.86 5.56 3.859 9.56c0 2.667-1.060 5.567-3.181 8.701s-5.327 6.527-9.619 10.179z"></path>
</symbol>
<symbol id="search" viewBox="0 0 32 32">
<path d="M31.64 29.9l-7.695-7.693c2.23-2.677 3.342-6.112 3.105-9.588s-1.806-6.728-4.379-9.077-5.954-3.617-9.437-3.537c-3.484 0.079-6.803 1.498-9.267 3.962s-3.883 5.783-3.962 9.267c-0.079 3.484 1.188 6.864 3.537 9.437s5.601 4.142 9.077 4.379c3.477 0.237 6.911-0.875 9.588-3.105l7.693 7.695c0.114 0.114 0.25 0.205 0.399 0.267s0.309 0.094 0.471 0.094c0.162 0 0.321-0.032 0.471-0.094s0.285-0.152 0.399-0.267 0.205-0.25 0.267-0.399c0.062-0.149 0.094-0.309 0.094-0.471s-0.032-0.321-0.094-0.471c-0.062-0.149-0.152-0.285-0.267-0.399zM2.493 13.558c0-2.188 0.649-4.328 1.865-6.147s2.944-3.238 4.966-4.075c2.022-0.837 4.247-1.057 6.393-0.63s4.118 1.481 5.665 3.028c1.547 1.547 2.601 3.519 3.028 5.665s0.208 4.371-0.63 6.393c-0.837 2.022-2.256 3.75-4.075 4.966s-3.959 1.865-6.147 1.865c-2.934-0.003-5.746-1.17-7.82-3.244s-3.241-4.887-3.244-7.821z"></path>
</symbol>
<symbol id="main" viewBox="0 0 32 32">
<path d="M14.222 14.222v-14.222h-10.667c-1.956 0-3.556 1.6-3.556 3.556v10.667h14.222zM17.778 14.222h14.222v-10.667c0-1.956-1.6-3.556-3.556-3.556h-10.667v14.222zM14.222 17.778h-14.222v10.667c0 1.956 1.6 3.556 3.556 3.556h10.667v-14.222zM17.778 17.778v14.222h10.667c1.956 0 3.556-1.6 3.556-3.556v-10.667h-14.222z"></path>
</symbol>
<symbol id="settings" viewBox="0 0 32 32">
<path d="M29.385 17.056c-0.261-0.292-0.405-0.667-0.405-1.056s0.144-0.764 0.405-1.056l2.085-2.304c0.23-0.252 0.372-0.568 0.407-0.905s-0.039-0.675-0.212-0.967l-3.257-5.535c-0.171-0.292-0.432-0.523-0.745-0.661s-0.662-0.175-0.998-0.107l-3.062 0.608c-0.39 0.079-0.795 0.015-1.14-0.179s-0.606-0.506-0.733-0.877l-0.993-2.928c-0.109-0.318-0.317-0.594-0.595-0.789s-0.611-0.3-0.952-0.299h-6.514c-0.355-0.018-0.707 0.078-1.001 0.275s-0.515 0.482-0.628 0.813l-0.912 2.928c-0.127 0.37-0.388 0.682-0.733 0.877s-0.751 0.258-1.14 0.179l-3.143-0.608c-0.318-0.044-0.643 0.005-0.933 0.142s-0.532 0.354-0.696 0.626l-3.257 5.535c-0.177 0.289-0.257 0.626-0.228 0.962s0.166 0.655 0.391 0.91l2.068 2.304c0.261 0.292 0.405 0.667 0.405 1.056s-0.144 0.764-0.405 1.056l-2.068 2.304c-0.225 0.255-0.361 0.574-0.391 0.91s0.050 0.673 0.228 0.962l3.257 5.535c0.171 0.292 0.432 0.523 0.745 0.661s0.662 0.175 0.998 0.107l3.062-0.608c0.39-0.079 0.795-0.015 1.14 0.179s0.606 0.506 0.733 0.877l0.993 2.928c0.113 0.331 0.334 0.617 0.628 0.813s0.646 0.293 1.001 0.275h6.514c0.341 0.001 0.675-0.104 0.952-0.299s0.486-0.471 0.595-0.789l0.993-2.928c0.127-0.37 0.388-0.682 0.733-0.877s0.751-0.258 1.14-0.179l3.062 0.608c0.336 0.069 0.685 0.031 0.998-0.107s0.573-0.369 0.745-0.661l3.257-5.535c0.173-0.292 0.247-0.631 0.212-0.967s-0.178-0.653-0.407-0.905l-2.199-2.304zM26.959 19.2l1.303 1.44-2.085 3.552-1.922-0.384c-1.173-0.235-2.393-0.040-3.429 0.55s-1.815 1.533-2.19 2.65l-0.619 1.792h-4.169l-0.586-1.824c-0.375-1.117-1.154-2.060-2.19-2.65s-2.256-0.785-3.429-0.55l-1.922 0.384-2.117-3.536 1.303-1.44c0.801-0.88 1.244-2.019 1.244-3.2s-0.443-2.32-1.244-3.2l-1.303-1.44 2.085-3.52 1.922 0.384c1.173 0.236 2.393 0.040 3.429-0.55s1.815-1.533 2.19-2.65l0.619-1.808h4.169l0.619 1.824c0.375 1.117 1.154 2.060 2.19 2.65s2.256 0.786 3.429 0.55l1.922-0.384 2.085 3.552-1.303 1.44c-0.792 0.878-1.23 2.010-1.23 3.184s0.437 2.306 1.23 3.184zM15.933 9.601c-1.288 0-2.548 0.375-3.619 1.078s-1.906 1.703-2.399 2.872c-0.493 1.169-0.622 2.456-0.371 3.697s0.872 2.382 1.783 3.277c0.911 0.895 2.072 1.504 3.335 1.751s2.573 0.12 3.764-0.364c1.19-0.484 2.208-1.305 2.923-2.357s1.098-2.29 1.098-3.555c0-1.697-0.686-3.325-1.908-4.525s-2.879-1.874-4.606-1.874zM15.933 19.2c-0.644 0-1.274-0.188-1.81-0.539s-0.953-0.851-1.2-1.436-0.311-1.228-0.185-1.849c0.126-0.621 0.436-1.191 0.891-1.638s1.036-0.752 1.668-0.876c0.632-0.123 1.287-0.060 1.882 0.182s1.104 0.652 1.462 1.178c0.358 0.526 0.549 1.145 0.549 1.778 0 0.849-0.343 1.662-0.954 2.262s-1.439 0.937-2.303 0.937z"></path>
</symbol>
</defs>
</svg>
