<svg aria-hidden="true" style="position: absolute; width: 0; height: 0; overflow: hidden;" version="1.1" xmlns="http://www.w3.org/2000/svg" xmlns:xlink="http://www.w3.org/1999/xlink">
<defs>
<symbol id="bell" viewBox="0 0 32 32">
<path d="M30.222 25.905v1.524h-28.444v-1.524l3.16-3.048v-9.143c0-4.724 3.208-8.884 7.901-10.225v-0.442c0-0.808 0.333-1.583 0.926-2.155s1.397-0.893 2.235-0.893c0.838 0 1.642 0.321 2.235 0.893s0.926 1.347 0.926 2.155v0.442c4.693 1.341 7.901 5.501 7.901 10.225v9.143l3.161 3.048zM19.16 28.952c0 0.808-0.333 1.583-0.926 2.155s-1.397 0.893-2.235 0.893c-0.838 0-1.642-0.321-2.235-0.893s-0.926-1.347-0.926-2.155z"></path>
</symbol>
<symbol id="location" viewBox="0 0 26 32">
<path d="M12.8 16c0.88 0 1.634-0.314 2.261-0.941s0.94-1.38 0.939-2.259c0-0.88-0.314-1.634-0.941-2.261s-1.38-0.94-2.259-0.939c-0.88 0-1.634 0.314-2.261 0.941s-0.94 1.38-0.939 2.259c0 0.88 0.314 1.634 0.941 2.261s1.38 0.94 2.259 0.939zM12.8 27.76c3.253-2.987 5.667-5.7 7.24-8.141s2.36-4.607 2.36-6.499c0-2.907-0.927-5.286-2.781-7.139s-4.127-2.78-6.819-2.781c-2.693 0-4.967 0.927-6.821 2.781s-2.78 4.234-2.779 7.139c0 1.893 0.787 4.060 2.36 6.501s3.987 5.154 7.24 8.139zM12.8 32c-4.293-3.653-7.5-7.046-9.619-10.179s-3.18-6.033-3.181-8.701c0-4 1.287-7.187 3.861-9.56s5.554-3.56 8.939-3.56c3.387 0 6.367 1.187 8.941 3.56s3.86 5.56 3.859 9.56c0 2.667-1.060 5.567-3.181 8.701s-5.327 6.527-9.619 10.179z"></path>
</symbol>
<symbol id="search" viewBox="0 0 32 32">
<path d="M31.64 29.9l-7.695-7.693c2.23-2.677 3.342-6.112 3.105-9.588s-1.806-6.728-4.379-9.077-5.954-3.617-9.437-3.537c-3.484 0.079-6.803 1.498-9.267 3.962s-3.883 5.783-3.962 9.267c-0.079 3.484 1.188 6.864 3.537 9.437s5.601 4.142 9.077 4.379c3.477 0.237 6.911-0.875 9.588-3.105l7.693 7.695c0.114 0.114 0.25 0.205 0.399 0.267s0.309 0.094 0.471 0.094c0.162 0 0.321-0.032 0.471-0.094s0.285-0.152 0.399-0.267 0.205-0.25 0.267-0.399c0.062-0.149 0.094-0.309 0.094-0.471s-0.032-0.321-0.094-0.471c-0.062-0.149-0.152-0.285-0.267-0.399zM2.493 13.558c0-2.188 0.649-4.328 1.865-6.147s2.944-3.238 4.966-4.075c2.022-0.837 4.247-1.057 6.393-0.63s4.118 1.481 5.665 3.028c1.547 1.547 2.601 3.519 3.028 5.665s0.208 4.371-0.63 6.393c-0.837 2.022-2.256 3.75-4.075 4.966s-3.959 1.865-6.147 1.865c-2.934-0.003-5.746-1.17-7.82-3.244s-3.241-4.887-3.244-7.821z"></path>
</symbol>
<symbol id="main" viewBox="0 0 32 32">
<path d="M14.222 14.222v-14.222h-10.667c-1.956 0-3.556 1.6-3.556 3.556v10.667h14.222zM17.778 14.222h14.222v-10.667c0-1.956-1.6-3.556-3.556-3.556h-10.667v14.222zM14.222 17.778h-14.222v10.667c0 1.956 1.6 3.556 3.556 3.556h10.667v-14.222zM17.778 17.778v14.222h10.667c1.956 0 3.556-1.6 3.556-3.556v-10.667h-14.222z"></path>
</symbol>
<symbol id="settings" viewBox="0 0 32 32">
<path d="M29.385 17.056c-0.261-0.292-0.405-0.667-0.405-1.056s0.144-0.764 0.405-1.056l2.085-2.304c0.23-0.252 0.372-0.568 0.407-0.905s-0.039-0.675-0.212-0.967l-3.257-5.535c-0.171-0.292-0.432-0.523-0.745-0.661s-0.662-0.175-0.998-0.107l-3.062 0.608c-0.39 0.079-0.795 0.015-1.14-0.179s-0.606-0.506-0.733-0.877l-0.993-2.928c-0.109-0.318-0.317-0.594-0.595-0.789s-0.611-0.3-0.952-0.299h-6.514c-0.355-0.018-0.707 0.078-1.001 0.275s-0.515 0.482-0.628 0.813l-0.912 2.928c-0.127 0.37-0.388 0.682-0.733 0.877s-0.751 0.258-1.14 0.179l-3.143-0.608c-0.318-0.044-0.643 0.005-0.933 0.142s-0.532 0.354-0.696 0.626l-3.257 5.535c-0.177 0.289-0.257 0.626-0.228 0.962s0.166 0.655 0.391 0.91l2.068 2.304c0.261 0.292 0.405 0.667 0.405 1.056s-0.144 0.764-0.405 1.056l-2.068 2.304c-0.225 0.255-0.361 0.574-0.391 0.91s0.050 0.673 0.228 0.962l3.257 5.535c0.171 0.292 0.432 0.523 0.745 0.661s0.662 0.175 0.998 0.107l3.062-0.608c0.39-0.079 0.795-0.015 1.14 0.179s0.606 0.506 0.733 0.877l0.993 2.928c0.113 0.331 0.334 0.617 0.628 0.813s0.646 0.293 1.001 0.275h6.514c0.341 0.001 0.675-0.104 0.952-0.299s0.486-0.471 0.595-0.789l0.993-2.928c0.127-0.37 0.388-0.682 0.733-0.877s0.751-0.258 1.14-0.179l3.062 0.608c0.336 0.069 0.685 0.031 0.998-0.107s0.573-0.369 0.745-0.661l3.257-5.535c0.173-0.292 0.247-0.631 0.212-0.967s-0.178-0.653-0.407-0.905l-2.199-2.304zM26.959 19.2l1.303 1.44-2.085 3.552-1.922-0.384c-1.173-0.235-2.393-0.040-3.429 0.55s-1.815 1.533-2.19 2.65l-0.619 1.792h-4.169l-0.586-1.824c-0.375-1.117-1.154-2.060-2.19-2.65s-2.256-0.785-3.429-0.55l-1.922 0.384-2.117-3.536 1.303-1.44c0.801-0.88 1.244-2.019 1.244-3.2s-0.443-2.32-1.244-3.2l-1.303-1.44 2.085-3.52 1.922 0.384c1.173 0.236 2.393 0.040 3.429-0.55s1.815-1.533 2.19-2.65l0.619-1.808h4.169l0.619 1.824c0.375 1.117 1.154 2.060 2.19 2.65s2.256 0.786 3.429 0.55l1.922-0.384 2.085 3.552-1.303 1.44c-0.792 0.878-1.23 2.010-1.23 3.184s0.437 2.306 1.23 3.184zM15.933 9.601c-1.288 0-2.548 0.375-3.619 1.078s-1.906 1.703-2.399 2.872c-0.493 1.169-0.622 2.456-0.371 3.697s0.872 2.382 1.783 3.277c0.911 0.895 2.072 1.504 3.335 1.751s2.573 0.12 3.764-0.364c1.19-0.484 2.208-1.305 2.923-2.357s1.098-2.29 1.098-3.555c0-1.697-0.686-3.325-1.908-4.525s-2.879-1.874-4.606-1.874zM15.933 19.2c-0.644 0-1.274-0.188-1.81-0.539s-0.953-0.851-1.2-1.436-0.311-1.228-0.185-1.849c0.126-0.621 0.436-1.191 0.891-1.638s1.036-0.752 1.668-0.876c0.632-0.123 1.287-0.060 1.882 0.182s1.104 0.652 1.462 1.178c0.358 0.526 0.549 1.145 0.549 1.778 0 0.849-0.343 1.662-0.954 2.262s-1.439 0.937-2.303 0.937z"></path>
</symbol>
<symbol id="clear_day" viewBox="0 0 32 32">
<path d="M16.001 8c-4.419 0-8 3.583-8 8s3.581 8 8 8c4.417 0 8-3.583 8-8s-3.583-8-8-8zM16 22.667c-3.676 0-6.667-2.991-6.667-6.667s2.991-6.667 6.667-6.667 6.667 2.991 6.667 6.667-2.991 6.667-6.667 6.667z"></path>
<path d="M16.001 6.667v0c-0.368 0-0.667-0.299-0.667-0.667v-2.667c0-0.368 0.299-0.667 0.667-0.667v0c0.368 0 0.667 0.299 0.667 0.667v2.667c0 0.368-0.299 0.667-0.667 0.667z"></path>
<path d="M16.001 29.333v0c-0.368 0-0.667-0.299-0.667-0.667v-2.667c0-0.368 0.299-0.667 0.667-0.667v0c0.368 0 0.667 0.299 0.667 0.667v2.667c0 0.368-0.299 0.667-0.667 0.667z"></path>
<path d="M6.667 16v0c0 0.368-0.299 0.667-0.667 0.667h-2.667c-0.368 0-0.667-0.299-0.667-0.667v0c0-0.368 0.299-0.667 0.667-0.667h2.667c0.368 0 0.667 0.299 0.667 0.667z"></path>
<path d="M29.334 16v0c0 0.368-0.299 0.667-0.667 0.667h-2.667c-0.368 0-0.667-0.299-0.667-0.667v0c0-0.368 0.299-0.667 0.667-0.667h2.667c0.368 0 0.667 0.299 0.667 0.667z"></path>
<path d="M22.6 9.4v0c-0.26-0.26-0.26-0.682 0-0.943l1.886-1.886c0.26-0.26 0.682-0.26 0.943 0v0c0.26 0.26 0.26 0.682 0 0.943l-1.886 1.886c-0.26 0.26-0.682 0.26-0.943 0z"></path>
<path d="M6.572 25.428v0c-0.26-0.26-0.26-0.682 0-0.943l1.886-1.886c0.26-0.26 0.682-0.26 0.943 0v0c0.26 0.26 0.26 0.682 0 0.943l-1.886 1.886c-0.26 0.26-0.682 0.26-0.943 0z"></path>
<path d="M9.401 9.4v0c-0.26 0.26-0.682 0.26-0.943 0l-1.886-1.886c-0.26-0.26-0.26-0.682 0-0.943v0c0.26-0.26 0.682-0.26 0.943 0l1.886 1.886c0.26 0.26 0.26 0.683 0 0.943z"></path>
<path d="M25.429 25.428v0c-0.26 0.26-0.682 0.26-0.943 0l-1.886-1.886c-0.26-0.26-0.26-0.682 0-0.943v0c0.26-0.26 0.682-0.26 0.943 0l1.886 1.886c0.26 0.26 0.26 0.682 0 0.943z"></path>
</symbol>
<symbol id="fog" viewBox="0 0 32 32">
<path d="M15.996 29.146c-3.436 0-5.181-0.559-6.868-1.097-1.663-0.533-3.233-1.036-6.461-1.036-0.368 0-0.667-0.297-0.667-0.667 0-0.368 0.299-0.667 0.667-0.667 3.437 0 5.181 0.559 6.868 1.099 1.663 0.532 3.233 1.035 6.461 1.035 3.231 0 4.801-0.503 6.465-1.035 1.688-0.54 3.433-1.099 6.872-1.099 0.369 0 0.667 0.299 0.667 0.667 0 0.369-0.297 0.667-0.667 0.667-3.229 0-4.801 0.503-6.465 1.036-1.688 0.539-3.433 1.097-6.872 1.097zM15.996 21.146c-3.436 0-5.181-0.559-6.868-1.097-1.663-0.533-3.233-1.036-6.461-1.036-0.368 0-0.667-0.297-0.667-0.667 0-0.368 0.299-0.667 0.667-0.667 3.437 0 5.181 0.559 6.868 1.099 1.663 0.532 3.233 1.035 6.461 1.035 3.231 0 4.801-0.503 6.465-1.035 1.688-0.54 3.433-1.099 6.872-1.099 0.369 0 0.667 0.299 0.667 0.667 0 0.369-0.297 0.667-0.667 0.667-3.229 0-4.801 0.503-6.465 1.036-1.688 0.539-3.433 1.097-6.872 1.097zM15.996 25.146c-3.436 0-5.181-0.559-6.868-1.097-1.663-0.533-3.233-1.036-6.461-1.036-0.368 0-0.667-0.297-0.667-0.667 0-0.368 0.299-0.667 0.667-0.667 3.437 0 5.181 0.559 6.868 1.099 1.663 0.532 3.233 1.035 6.461 1.035 3.231 0 4.801-0.503 6.465-1.035 1.688-0.54 3.433-1.099 6.872-1.099 0.369 0 0.667 0.299 0.667 0.667 0 0.369-0.297 0.667-0.667 0.667-3.229 0-4.801 0.503-6.465 1.036-1.688 0.539-3.433 1.097-6.872 1.097z"></path>
<path d="M3.151 15.023c0.564 0.009 1.089 0.031 1.577 0.066 0.31-0.366 0.687-0.679 1.156-0.867l0.932-0.375-0.103-1c-0.031-0.301-0.047-0.578-0.047-0.847 0-4.411 3.589-8 8-8 3.681 0 6.87 2.497 7.755 6.071l0.243 0.98 1.009 0.032c2.257 0.071 4.038 1.775 4.278 3.959 0.417-0.019 0.861-0.028 1.33-0.029-0.262-2.893-2.625-5.169-5.566-5.263-1.007-4.067-4.671-7.084-9.049-7.084-5.155 0-9.333 4.177-9.333 9.333 0 0.333 0.020 0.661 0.053 0.984-0.968 0.389-1.76 1.119-2.235 2.038z"></path>
</symbol>
<symbol id="freezing_rain" viewBox="0 0 32 32">
<path d="M15.681 8.206c-0.085 0-0.172-0.015-0.256-0.051-0.34-0.14-0.501-0.531-0.36-0.871l0.637-1.539c0.141-0.341 0.532-0.5 0.872-0.361 0.34 0.141 0.501 0.532 0.36 0.872l-0.637 1.539c-0.107 0.256-0.355 0.411-0.616 0.411zM11.316 7.795l0.637-1.539c0.141-0.34-0.020-0.731-0.36-0.872-0.34-0.139-0.731 0.020-0.871 0.361l-0.639 1.539c-0.14 0.34 0.021 0.731 0.361 0.871 0.083 0.036 0.169 0.051 0.255 0.051 0.261 0 0.509-0.155 0.616-0.411zM12.844 12.29l0.637-1.54c0.141-0.34-0.020-0.731-0.36-0.872-0.337-0.139-0.729 0.021-0.871 0.361l-0.637 1.54c-0.141 0.34 0.020 0.731 0.36 0.872 0.084 0.033 0.169 0.051 0.255 0.051 0.263 0 0.511-0.156 0.616-0.412zM7.852 12.29l0.639-1.54c0.14-0.34-0.021-0.731-0.361-0.872-0.339-0.14-0.731 0.021-0.871 0.361l-0.639 1.54c-0.14 0.34 0.021 0.731 0.361 0.872 0.083 0.033 0.169 0.051 0.255 0.051 0.261 0 0.511-0.156 0.616-0.412zM6.335 7.795l0.639-1.54c0.14-0.34-0.021-0.731-0.361-0.872-0.339-0.14-0.731 0.021-0.871 0.361l-0.639 1.54c-0.14 0.341 0.021 0.731 0.361 0.871 0.083 0.036 0.169 0.051 0.255 0.051 0.261 0 0.509-0.155 0.616-0.411zM26.259 7.795l0.639-1.539c0.14-0.34-0.021-0.731-0.361-0.872-0.339-0.139-0.729 0.020-0.871 0.361l-0.637 1.539c-0.141 0.34 0.020 0.731 0.36 0.871 0.084 0.036 0.171 0.051 0.255 0.051 0.261 0 0.511-0.155 0.616-0.411zM21.279 7.795l0.637-1.539c0.141-0.34-0.021-0.731-0.36-0.872-0.34-0.139-0.731 0.020-0.872 0.361l-0.637 1.539c-0.141 0.34 0.020 0.731 0.36 0.871 0.084 0.036 0.171 0.051 0.256 0.051 0.26 0 0.509-0.155 0.616-0.411zM22.828 12.29l0.637-1.54c0.141-0.34-0.020-0.731-0.36-0.872-0.34-0.14-0.731 0.021-0.872 0.361l-0.637 1.54c-0.141 0.34 0.020 0.731 0.36 0.872 0.084 0.033 0.171 0.051 0.256 0.051 0.261 0 0.509-0.156 0.616-0.412zM17.836 12.29l0.639-1.54c0.14-0.34-0.021-0.731-0.361-0.872-0.339-0.14-0.731 0.021-0.871 0.361l-0.639 1.54c-0.14 0.34 0.021 0.731 0.361 0.872 0.083 0.033 0.169 0.051 0.255 0.051 0.261 0 0.509-0.156 0.616-0.412z"></path>
<path d="M28 16h-24c-0.736 0-1.333 1.333-1.333 1.333s0.289 0.959 0.713 1.181c0.403 0.212 0.62 0.667 0.62 1.123v5.696c0 0.737 1.333 1.333 1.333 1.333s1.333-0.596 1.333-1.333v-5.333c0-0.736 1.333-1.333 1.333-1.333s1.333 0.597 1.333 1.333v2.667c0 0.737 1.333 1.333 1.333 1.333s1.333-0.596 1.333-1.333v-2.667c0-0.736 1.333-1.333 1.333-1.333s1.333 0.597 1.333 1.333v8c0 0.737 1.333 1.333 1.333 1.333s1.333-0.596 1.333-1.333v-8c0-0.736 1.333-1.333 1.333-1.333s1.333 0.597 1.333 1.333v2.667c0 0.737 1.333 1.333 1.333 1.333s1.333-0.596 1.333-1.333v-2.667c0-0.736 1.333-1.333 1.333-1.333s1.333 0.597 1.333 1.333v5.333c0 0.737 1.333 1.333 1.333 1.333s1.333-0.596 1.333-1.333v-5.696c0-0.456 0.216-0.911 0.62-1.123 0.424-0.223 0.713-1.181 0.713-1.181s-0.597-1.333-1.333-1.333z"></path>
</symbol>
<symbol id="freezing_rain_heavy" viewBox="0 0 32 32">
<path d="M28 16h-24c-0.736 0-1.333 1.333-1.333 1.333s0.289 0.959 0.713 1.181c0.403 0.212 0.62 0.667 0.62 1.123v5.696c0 0.737 1.333 1.333 1.333 1.333s1.333-0.596 1.333-1.333v-5.333c0-0.736 1.333-1.333 1.333-1.333s1.333 0.597 1.333 1.333v5.333c0 0.737 1.333 1.333 1.333 1.333s1.333-0.596 1.333-1.333v-5.333c0-0.736 1.333-1.333 1.333-1.333s1.333 0.597 1.333 1.333v8c0 0.737 1.333 1.333 1.333 1.333s1.333-0.596 1.333-1.333v-8c0-0.736 1.333-1.333 1.333-1.333s1.333 0.597 1.333 1.333v5.333c0 0.737 1.333 1.333 1.333 1.333s1.333-0.596 1.333-1.333v-5.333c0-0.736 1.333-1.333 1.333-1.333s1.333 0.597 1.333 1.333v5.333c0 0.737 1.333 1.333 1.333 1.333s1.333-0.596 1.333-1.333v-5.696c0-0.456 0.216-0.911 0.62-1.123 0.424-0.223 0.713-1.181 0.713-1.181s-0.597-1.333-1.333-1.333z"></path>
<path d="M25.346 13.083v0c-0.34-0.141-0.502-0.531-0.361-0.871l2.68-6.467c0.141-0.34 0.531-0.502 0.871-0.361s0.502 0.531 0.361 0.871l-2.68 6.467c-0.141 0.34-0.531 0.502-0.871 0.361zM6.293 12.724l2.68-6.466c0.141-0.34-0.021-0.73-0.361-0.871s-0.73 0.020-0.871 0.361l-2.68 6.467c-0.141 0.34 0.021 0.73 0.361 0.871s0.73-0.020 0.871-0.361zM11.274 12.724l2.68-6.467c0.141-0.34-0.021-0.73-0.361-0.871s-0.73 0.021-0.871 0.361l-2.68 6.467c-0.141 0.34 0.021 0.73 0.361 0.871s0.73-0.020 0.871-0.361zM16.255 12.723l2.68-6.467c0.141-0.34-0.021-0.73-0.361-0.871s-0.73 0.021-0.871 0.361l-2.68 6.467c-0.141 0.34 0.021 0.73 0.361 0.871s0.73-0.021 0.871-0.361zM21.236 12.723l2.68-6.467c0.141-0.34-0.021-0.73-0.361-0.871s-0.731 0.020-0.871 0.361l-2.68 6.467c-0.141 0.34 0.021 0.73 0.361 0.871s0.731-0.021 0.871-0.361zM23.726 12.723l0.968-2.337c0.141-0.34-0.020-0.73-0.361-0.871s-0.73 0.021-0.871 0.361l-0.968 2.337c-0.141 0.34 0.021 0.73 0.361 0.871s0.73-0.021 0.871-0.361zM18.745 12.723l0.968-2.337c0.141-0.34-0.021-0.73-0.361-0.871s-0.73 0.020-0.871 0.361l-0.968 2.337c-0.141 0.34 0.021 0.73 0.361 0.871s0.731-0.021 0.871-0.361zM13.764 12.724l0.968-2.337c0.141-0.34-0.021-0.73-0.361-0.871s-0.73 0.021-0.871 0.361l-0.968 2.337c-0.141 0.34 0.021 0.73 0.361 0.871s0.73-0.020 0.871-0.361zM8.783 12.724l0.968-2.337c0.141-0.34-0.021-0.73-0.361-0.871s-0.73 0.021-0.871 0.361l-0.968 2.337c-0.141 0.34 0.021 0.73 0.361 0.871s0.73-0.021 0.871-0.361zM25.588 8.231l0.818-1.974c0.141-0.34-0.021-0.73-0.361-0.871s-0.73 0.021-0.871 0.361l-0.818 1.974c-0.141 0.34 0.021 0.73 0.361 0.871s0.731-0.020 0.871-0.361zM20.607 8.231l0.818-1.974c0.141-0.34-0.021-0.73-0.361-0.871s-0.73 0.020-0.871 0.361l-0.818 1.974c-0.141 0.34 0.021 0.731 0.361 0.871s0.73-0.020 0.871-0.361zM15.626 8.231l0.818-1.974c0.141-0.34-0.021-0.73-0.361-0.871s-0.73 0.021-0.871 0.361l-0.818 1.975c-0.141 0.34 0.021 0.73 0.361 0.871s0.73-0.021 0.871-0.361zM10.645 8.232l0.818-1.974c0.141-0.34-0.021-0.73-0.361-0.871s-0.73 0.021-0.871 0.361l-0.818 1.975c-0.141 0.34 0.020 0.731 0.361 0.871s0.73-0.021 0.871-0.361z"></path>
</symbol>
<symbol id="mostly_clear_day" viewBox="0 0 32 32">
<path d="M15.095 4.71v0c-0.34 0.141-0.73-0.021-0.871-0.361l-1.021-2.464c-0.141-0.34 0.021-0.73 0.361-0.871v0c0.34-0.141 0.73 0.021 0.871 0.361l1.021 2.464c0.141 0.34-0.021 0.73-0.361 0.871z"></path>
<path d="M30.985 8.231v0c0.141 0.34-0.021 0.73-0.361 0.871l-2.464 1.021c-0.34 0.141-0.73-0.021-0.871-0.361v0c-0.141-0.34 0.021-0.73 0.361-0.871l2.464-1.021c0.34-0.141 0.73 0.021 0.871 0.361z"></path>
<path d="M22.239 4.71v0c-0.34-0.141-0.502-0.531-0.361-0.871l1.021-2.464c0.141-0.34 0.531-0.502 0.871-0.361v0c0.34 0.141 0.502 0.531 0.361 0.871l-1.021 2.464c-0.141 0.34-0.531 0.502-0.871 0.361z"></path>
<path d="M10.044 9.762v0c-0.141 0.34-0.531 0.502-0.871 0.361l-2.464-1.021c-0.34-0.141-0.502-0.531-0.361-0.871v0c0.141-0.34 0.531-0.502 0.871-0.361l2.464 1.021c0.34 0.141 0.502 0.531 0.361 0.871z"></path>
<path d="M30.985 18.436v0c-0.141 0.34-0.531 0.502-0.871 0.361l-2.464-1.021c-0.34-0.141-0.502-0.531-0.361-0.871v0c0.141-0.34 0.531-0.502 0.871-0.361l2.464 1.021c0.34 0.141 0.502 0.531 0.361 0.871z"></path>
<path d="M15.095 4.711v0c-0.34 0.141-0.73-0.021-0.871-0.361l-1.021-2.464c-0.141-0.34 0.021-0.73 0.361-0.871v0c0.34-0.141 0.73 0.021 0.871 0.361l1.021 2.464c0.141 0.34-0.021 0.73-0.361 0.871z"></path>
<path d="M30.985 8.231v0c0.141 0.34-0.021 0.73-0.361 0.871l-2.464 1.021c-0.34 0.141-0.73-0.021-0.871-0.361v0c-0.141-0.34 0.021-0.73 0.361-0.871l2.464-1.021c0.34-0.141 0.73 0.021 0.871 0.361z"></path>
<path d="M22.239 4.711v0c-0.34-0.141-0.502-0.531-0.361-0.871l1.021-2.464c0.141-0.34 0.531-0.502 0.871-0.361v0c0.34 0.141 0.502 0.531 0.361 0.871l-1.021 2.464c-0.141 0.34-0.531 0.502-0.871 0.361z"></path>
<path d="M10.044 9.762v0c-0.141 0.34-0.531 0.502-0.871 0.361l-2.464-1.021c-0.34-0.141-0.502-0.531-0.361-0.871v0c0.141-0.34 0.531-0.502 0.871-0.361l2.464 1.021c0.34 0.141 0.502 0.531 0.361 0.871z"></path>
<path d="M12.001 12.667c0.022 0 0.044 0.005 0.066 0.006 0.337-3.362 3.15-6.006 6.6-6.006 3.676 0 6.667 2.991 6.667 6.667 0 3.030-2.045 5.565-4.817 6.373l0.007 0.028 0.505 0.016c0.645 0.021 1.252 0.167 1.812 0.399 2.292-1.407 3.827-3.929 3.827-6.816 0-4.418-3.582-8-8-8-4.23 0-7.685 3.286-7.972 7.443 0.427-0.065 0.861-0.109 1.305-0.109z"></path>
<path d="M12 13.334c3.681 0 6.87 2.497 7.755 6.071l0.243 0.98 1.009 0.032c2.426 0.077 4.326 2.031 4.326 4.45 0 2.463-2.004 4.467-4.467 4.467h-16.533c-1.654 0-3-1.346-3-3 0-1.228 0.74-2.319 1.884-2.779l0.932-0.375-0.103-0.999c-0.031-0.301-0.046-0.578-0.046-0.847 0-4.411 3.589-8 8-8zM12 12c-5.155 0-9.333 4.177-9.333 9.333 0 0.333 0.020 0.661 0.053 0.984-1.592 0.64-2.72 2.193-2.72 4.016 0 2.392 1.94 4.333 4.333 4.333h16.533c3.204 0 5.8-2.597 5.8-5.8 0-3.141-2.5-5.684-5.617-5.783-1.007-4.067-4.671-7.084-9.049-7.084v0z"></path>
</symbol>
<symbol id="rain" viewBox="0 0 32 32">
<path d="M14.666 4c3.681 0 6.87 2.497 7.755 6.071l0.243 0.98 1.009 0.032c2.426 0.077 4.326 2.031 4.326 4.45 0 2.463-2.004 4.467-4.467 4.467h-16.533c-1.654 0-3-1.346-3-3 0-1.228 0.74-2.319 1.884-2.779l0.932-0.375-0.103-1c-0.031-0.301-0.046-0.578-0.046-0.847 0-4.411 3.589-8 8-8zM14.666 2.667c-5.155 0-9.333 4.177-9.333 9.333 0 0.333 0.020 0.661 0.053 0.984-1.592 0.64-2.72 2.193-2.72 4.016 0 2.392 1.94 4.333 4.333 4.333h16.533c3.204 0 5.8-2.597 5.8-5.8 0-3.141-2.5-5.684-5.617-5.783-1.007-4.067-4.671-7.084-9.049-7.084v0z"></path>
<path d="M15.379 25.387c-0.086 0-0.172-0.016-0.255-0.051-0.34-0.141-0.501-0.531-0.361-0.871l0.638-1.54c0.142-0.341 0.535-0.5 0.871-0.361 0.34 0.141 0.501 0.531 0.361 0.871l-0.638 1.54c-0.107 0.257-0.354 0.411-0.616 0.411zM11.013 24.975l0.638-1.54c0.141-0.34-0.021-0.731-0.361-0.871-0.337-0.139-0.729 0.019-0.871 0.361l-0.638 1.54c-0.141 0.34 0.021 0.731 0.361 0.871 0.083 0.035 0.169 0.051 0.255 0.051 0.262 0 0.509-0.155 0.616-0.411zM12.542 28.803l0.638-1.54c0.141-0.34-0.021-0.731-0.361-0.871-0.339-0.14-0.729 0.020-0.871 0.361l-0.638 1.54c-0.141 0.34 0.021 0.731 0.361 0.871 0.083 0.035 0.169 0.051 0.255 0.051 0.262-0 0.509-0.155 0.616-0.411zM7.551 28.802l0.637-1.54c0.141-0.34-0.021-0.73-0.361-0.87s-0.732 0.021-0.871 0.361l-0.637 1.54c-0.141 0.34 0.021 0.73 0.361 0.87 0.083 0.035 0.171 0.051 0.255 0.051 0.262-0 0.51-0.155 0.616-0.412zM6.033 24.975l0.638-1.54c0.141-0.341-0.021-0.731-0.361-0.871-0.341-0.142-0.729 0.021-0.871 0.361l-0.638 1.54c-0.141 0.341 0.021 0.731 0.361 0.871 0.083 0.035 0.171 0.051 0.255 0.051 0.262 0 0.509-0.155 0.616-0.411zM25.957 24.975l0.638-1.54c0.141-0.34-0.021-0.731-0.361-0.871-0.337-0.139-0.729 0.019-0.871 0.361l-0.638 1.54c-0.141 0.34 0.021 0.731 0.361 0.871 0.083 0.035 0.169 0.051 0.255 0.051 0.262 0 0.509-0.155 0.616-0.411zM20.975 24.975l0.638-1.54c0.141-0.34-0.021-0.731-0.361-0.871-0.336-0.139-0.729 0.019-0.871 0.361l-0.638 1.54c-0.141 0.34 0.021 0.731 0.361 0.871 0.083 0.035 0.169 0.051 0.255 0.051 0.262 0 0.509-0.155 0.616-0.411zM22.526 28.802l0.637-1.54c0.141-0.34-0.021-0.73-0.361-0.87s-0.731 0.021-0.871 0.361l-0.637 1.54c-0.141 0.34 0.021 0.73 0.361 0.87 0.083 0.035 0.171 0.051 0.255 0.051 0.262-0 0.51-0.155 0.616-0.412zM17.534 28.803l0.638-1.54c0.141-0.34-0.021-0.731-0.361-0.871-0.337-0.14-0.729 0.020-0.871 0.361l-0.638 1.54c-0.141 0.34 0.021 0.731 0.361 0.871 0.083 0.035 0.169 0.051 0.255 0.051 0.262-0 0.509-0.155 0.616-0.411z"></path>
</symbol>
<symbol id="rain_heavy" viewBox="0 0 32 32">
<path d="M23.015 29.555v0c-0.34-0.141-0.502-0.531-0.361-0.871l2.169-5.235c0.141-0.34 0.531-0.502 0.871-0.361s0.502 0.531 0.361 0.871l-2.169 5.235c-0.141 0.34-0.531 0.502-0.871 0.361zM3.962 29.196l2.169-5.235c0.141-0.34-0.021-0.73-0.361-0.871s-0.73 0.020-0.871 0.361l-2.169 5.235c-0.141 0.34 0.021 0.73 0.361 0.871s0.73-0.020 0.871-0.361zM8.943 29.196l2.169-5.235c0.141-0.34-0.021-0.73-0.361-0.871s-0.73 0.021-0.871 0.361l-2.169 5.235c-0.141 0.34 0.021 0.73 0.361 0.871s0.73-0.020 0.871-0.361zM13.924 29.195l2.169-5.235c0.141-0.34-0.021-0.73-0.361-0.871s-0.73 0.021-0.871 0.361l-2.169 5.235c-0.141 0.34 0.021 0.73 0.361 0.871s0.73-0.021 0.871-0.361zM18.905 29.195l2.17-5.235c0.141-0.34-0.021-0.73-0.361-0.871s-0.731 0.020-0.871 0.361l-2.17 5.235c-0.141 0.34 0.021 0.73 0.361 0.871s0.731-0.021 0.871-0.361zM21.396 29.195l0.458-1.105c0.141-0.34-0.020-0.73-0.361-0.871s-0.73 0.021-0.871 0.361l-0.458 1.105c-0.141 0.34 0.021 0.73 0.361 0.871s0.73-0.021 0.871-0.361zM16.415 29.195l0.458-1.105c0.141-0.34-0.021-0.73-0.361-0.871s-0.73 0.020-0.871 0.361l-0.458 1.105c-0.141 0.34 0.021 0.73 0.361 0.871s0.73-0.021 0.871-0.361zM11.434 29.196l0.458-1.105c0.141-0.34-0.021-0.73-0.361-0.871s-0.73 0.021-0.871 0.361l-0.458 1.105c-0.141 0.34 0.021 0.73 0.361 0.871s0.73-0.021 0.871-0.361zM6.453 29.196l0.458-1.105c0.141-0.34-0.021-0.73-0.361-0.871s-0.73 0.021-0.871 0.361l-0.458 1.105c-0.141 0.34 0.021 0.73 0.361 0.871s0.73-0.021 0.871-0.361zM22.747 25.934l0.818-1.974c0.141-0.34-0.021-0.73-0.361-0.871s-0.73 0.021-0.871 0.361l-0.818 1.974c-0.141 0.34 0.021 0.73 0.361 0.871s0.731-0.021 0.871-0.361zM17.766 25.935l0.818-1.974c0.141-0.34-0.021-0.73-0.361-0.871s-0.73 0.020-0.871 0.361l-0.818 1.974c-0.141 0.34 0.021 0.731 0.361 0.871s0.73-0.020 0.871-0.361zM12.785 25.935l0.818-1.974c0.141-0.34-0.021-0.73-0.361-0.871s-0.73 0.021-0.871 0.361l-0.818 1.975c-0.141 0.34 0.021 0.73 0.361 0.871s0.73-0.021 0.871-0.361zM7.804 25.935l0.818-1.974c0.141-0.34-0.021-0.73-0.361-0.871s-0.73 0.021-0.871 0.361l-0.818 1.974c-0.141 0.34 0.021 0.731 0.361 0.871s0.73-0.020 0.871-0.361z"></path>
<path d="M14.666 3.999c3.681 0 6.87 2.497 7.755 6.071l0.243 0.98 1.009 0.032c2.426 0.077 4.326 2.031 4.326 4.45 0 2.463-2.004 4.467-4.467 4.467h-16.533c-1.654 0-3-1.346-3-3 0-1.228 0.74-2.319 1.884-2.779l0.932-0.375-0.103-0.999c-0.031-0.301-0.046-0.578-0.046-0.847 0-4.411 3.589-8 8-8zM14.666 2.666c-5.155 0-9.333 4.177-9.333 9.333 0 0.333 0.020 0.661 0.053 0.984-1.592 0.64-2.72 2.193-2.72 4.016 0 2.392 1.94 4.333 4.333 4.333h16.533c3.204 0 5.8-2.597 5.8-5.8 0-3.141-2.5-5.684-5.617-5.783-1.007-4.067-4.671-7.084-9.049-7.084v0z"></path>
</symbol>
<symbol id="rain_light" viewBox="0 0 32 32">
<path d="M15.379 26.72c-0.085 0-0.172-0.016-0.256-0.051-0.34-0.141-0.501-0.532-0.36-0.871l0.637-1.54c0.141-0.341 0.535-0.5 0.872-0.361 0.34 0.141 0.501 0.532 0.36 0.872l-0.637 1.539c-0.107 0.257-0.355 0.412-0.616 0.412zM6.032 26.308l0.639-1.54c0.14-0.34-0.021-0.731-0.361-0.871-0.337-0.141-0.729 0.020-0.871 0.36l-0.639 1.541c-0.14 0.34 0.021 0.729 0.361 0.871 0.083 0.035 0.169 0.051 0.255 0.051 0.261 0 0.509-0.155 0.616-0.412zM25.956 26.308l0.639-1.539c0.14-0.34-0.021-0.731-0.361-0.872-0.337-0.139-0.729 0.020-0.871 0.361l-0.637 1.54c-0.141 0.339 0.020 0.729 0.36 0.871 0.084 0.035 0.171 0.051 0.255 0.051 0.261 0 0.511-0.155 0.616-0.412zM11.014 26.308l0.637-1.539c0.141-0.34-0.020-0.731-0.36-0.872-0.337-0.139-0.729 0.020-0.871 0.361l-0.639 1.54c-0.14 0.339 0.021 0.729 0.361 0.871 0.083 0.035 0.169 0.051 0.255 0.051 0.261 0 0.509-0.155 0.616-0.412zM20.976 26.308l0.637-1.539c0.141-0.34-0.021-0.731-0.36-0.872-0.337-0.139-0.731 0.020-0.872 0.361l-0.637 1.54c-0.141 0.339 0.020 0.729 0.36 0.871 0.084 0.035 0.171 0.051 0.256 0.051 0.26 0 0.509-0.155 0.616-0.412z"></path>
<path d="M14.667 4c3.681 0 6.87 2.497 7.755 6.071l0.243 0.98 1.009 0.032c2.426 0.077 4.326 2.032 4.326 4.45 0 2.463-2.004 4.467-4.467 4.467h-16.533c-1.654 0-3-1.346-3-3 0-1.228 0.74-2.319 1.884-2.779l0.932-0.375-0.103-0.999c-0.031-0.301-0.046-0.578-0.046-0.847 0-4.411 3.589-8 8-8zM14.667 2.667c-5.155 0-9.333 4.177-9.333 9.333 0 0.333 0.020 0.661 0.053 0.984-1.592 0.64-2.72 2.193-2.72 4.016 0 2.392 1.94 4.333 4.333 4.333h16.533c3.204 0 5.8-2.597 5.8-5.8 0-3.141-2.5-5.684-5.617-5.783-1.007-4.067-4.671-7.084-9.049-7.084v0z"></path>
</symbol>
<symbol id="snow" viewBox="0 0 32 32">
<path d="M14.667 4c3.681 0 6.87 2.497 7.755 6.071l0.243 0.98 1.009 0.032c2.426 0.077 4.326 2.032 4.326 4.45 0 2.463-2.004 4.467-4.467 4.467h-16.533c-1.654 0-3-1.346-3-3 0-1.228 0.74-2.319 1.884-2.779l0.932-0.375-0.103-0.999c-0.031-0.301-0.046-0.578-0.046-0.847 0-4.411 3.589-8 8-8zM14.667 2.667c-5.155 0-9.333 4.177-9.333 9.333 0 0.333 0.020 0.661 0.053 0.984-1.592 0.64-2.72 2.193-2.72 4.016 0 2.392 1.94 4.333 4.333 4.333h16.533c3.204 0 5.8-2.597 5.8-5.8 0-3.141-2.5-5.684-5.617-5.783-1.007-4.067-4.671-7.084-9.049-7.084v0z"></path>
<path d="M8.426 26.213l-1.089 0.629 1.089 0.629c0.319 0.184 0.428 0.592 0.243 0.911-0.122 0.214-0.348 0.333-0.577 0.333-0.113 0-0.228-0.029-0.333-0.089l-1.089-0.628v1.257c0 0.369-0.298 0.667-0.667 0.667s-0.667-0.298-0.667-0.667v-1.258l-1.090 0.629c-0.105 0.061-0.22 0.089-0.333 0.089-0.229 0-0.454-0.12-0.577-0.333-0.185-0.319-0.075-0.727 0.243-0.911l1.089-0.629-1.089-0.629c-0.319-0.184-0.428-0.592-0.243-0.911 0.184-0.318 0.592-0.427 0.91-0.244l1.090 0.629v-1.258c0-0.369 0.298-0.667 0.667-0.667s0.667 0.298 0.667 0.667v1.257l1.089-0.628c0.318-0.185 0.727-0.075 0.91 0.244 0.185 0.319 0.076 0.726-0.243 0.911zM28.419 27.471l-1.089-0.629 1.089-0.629c0.319-0.184 0.428-0.592 0.243-0.911-0.184-0.32-0.594-0.429-0.91-0.244l-1.090 0.629v-1.258c0-0.369-0.298-0.667-0.667-0.667s-0.667 0.298-0.667 0.667v1.257l-1.089-0.628c-0.318-0.183-0.727-0.074-0.91 0.244-0.185 0.319-0.075 0.727 0.243 0.911l1.089 0.629-1.089 0.629c-0.319 0.184-0.428 0.592-0.243 0.911 0.122 0.214 0.348 0.333 0.577 0.333 0.113 0 0.228-0.029 0.333-0.089l1.089-0.628v1.257c0 0.369 0.298 0.667 0.667 0.667s0.667-0.298 0.667-0.667v-1.258l1.090 0.629c0.105 0.061 0.22 0.089 0.333 0.089 0.229 0 0.454-0.12 0.577-0.333 0.185-0.319 0.075-0.727-0.243-0.911zM18.666 25.303c-0.184-0.32-0.592-0.429-0.91-0.244l-1.089 0.628v-1.257c0-0.369-0.298-0.667-0.667-0.667s-0.667 0.298-0.667 0.667v1.258l-1.090-0.629c-0.318-0.183-0.727-0.074-0.91 0.244-0.185 0.319-0.075 0.727 0.243 0.911l1.089 0.629-1.089 0.629c-0.319 0.184-0.428 0.592-0.243 0.911 0.122 0.214 0.348 0.333 0.577 0.333 0.113 0 0.228-0.029 0.333-0.089l1.090-0.629v1.258c0 0.369 0.298 0.667 0.667 0.667s0.667-0.298 0.667-0.667v-1.257l1.089 0.628c0.105 0.061 0.22 0.089 0.333 0.089 0.229 0 0.454-0.12 0.577-0.333 0.185-0.319 0.075-0.727-0.243-0.911l-1.089-0.629 1.089-0.629c0.319-0.184 0.428-0.591 0.243-0.911z"></path>
</symbol>
<symbol id="snow_heavy" viewBox="0 0 32 32">
<path d="M14.666 1.333c3.681 0 6.87 2.497 7.755 6.071l0.243 0.98 1.009 0.032c2.426 0.077 4.326 2.032 4.326 4.45 0 2.463-2.004 4.467-4.467 4.467h-16.533c-1.654 0-3-1.346-3-3 0-1.228 0.74-2.319 1.884-2.779l0.932-0.375-0.103-0.999c-0.031-0.301-0.046-0.578-0.046-0.847 0-4.411 3.589-8 8-8zM14.666 0c-5.155 0-9.333 4.177-9.333 9.333 0 0.333 0.020 0.661 0.053 0.984-1.592 0.64-2.72 2.193-2.72 4.016 0 2.392 1.94 4.333 4.333 4.333h16.533c3.204 0 5.8-2.597 5.8-5.8 0-3.141-2.5-5.684-5.617-5.783-1.007-4.067-4.671-7.084-9.049-7.084v0z"></path>
<path d="M8.671 24.381c-0.122 0.214-0.348 0.333-0.577 0.333-0.113 0-0.228-0.029-0.333-0.089l-1.090-0.629v1.258c0 0.369-0.298 0.667-0.667 0.667s-0.667-0.298-0.667-0.667v-1.257l-1.089 0.628c-0.105 0.061-0.22 0.089-0.333 0.089-0.229 0-0.454-0.12-0.577-0.333-0.185-0.319-0.075-0.727 0.243-0.911l1.089-0.629-1.089-0.629c-0.319-0.184-0.428-0.592-0.243-0.911 0.184-0.318 0.592-0.426 0.91-0.244l1.089 0.628v-1.257c0-0.369 0.298-0.667 0.667-0.667s0.667 0.298 0.667 0.667v1.258l1.090-0.629c0.318-0.184 0.727-0.075 0.91 0.244 0.185 0.319 0.075 0.727-0.243 0.911l-1.089 0.629 1.089 0.629c0.319 0.185 0.428 0.592 0.243 0.911zM28.418 23.471l-1.089-0.629 1.089-0.629c0.319-0.184 0.428-0.592 0.243-0.911-0.184-0.319-0.592-0.428-0.91-0.244l-1.089 0.628v-1.257c0-0.369-0.298-0.667-0.667-0.667s-0.667 0.298-0.667 0.667v1.258l-1.090-0.629c-0.316-0.182-0.727-0.074-0.91 0.244-0.185 0.319-0.075 0.727 0.243 0.911l1.089 0.629-1.089 0.629c-0.319 0.184-0.428 0.592-0.243 0.911 0.122 0.214 0.348 0.333 0.577 0.333 0.113 0 0.228-0.029 0.333-0.089l1.090-0.629v1.258c0 0.369 0.298 0.667 0.667 0.667s0.667-0.298 0.667-0.667v-1.257l1.089 0.628c0.105 0.061 0.22 0.089 0.333 0.089 0.229 0 0.454-0.12 0.577-0.333 0.185-0.319 0.075-0.726-0.243-0.911zM18.422 23.471l-1.089-0.629 1.089-0.629c0.319-0.184 0.428-0.592 0.243-0.911-0.184-0.321-0.592-0.428-0.91-0.244l-1.089 0.628v-1.257c0-0.369-0.298-0.667-0.667-0.667s-0.667 0.298-0.667 0.667v1.257l-1.089-0.629c-0.318-0.182-0.727-0.076-0.91 0.244-0.185 0.319-0.075 0.727 0.243 0.911l1.089 0.629-1.089 0.629c-0.319 0.184-0.428 0.592-0.243 0.911 0.122 0.214 0.348 0.333 0.577 0.333 0.113 0 0.228-0.029 0.333-0.089l1.089-0.629v1.257c0 0.369 0.298 0.667 0.667 0.667s0.667-0.298 0.667-0.667v-1.257l1.089 0.629c0.105 0.061 0.22 0.089 0.333 0.089 0.229 0 0.454-0.119 0.577-0.333 0.185-0.319 0.076-0.727-0.243-0.911zM13.668 26.441c-0.182-0.32-0.591-0.427-0.91-0.244l-1.089 0.628v-1.257c0-0.369-0.298-0.667-0.667-0.667s-0.667 0.298-0.667 0.667v1.258l-1.090-0.629c-0.318-0.181-0.727-0.074-0.91 0.244-0.185 0.319-0.075 0.727 0.243 0.911l1.089 0.629-1.089 0.629c-0.319 0.184-0.428 0.592-0.243 0.911 0.122 0.214 0.348 0.333 0.577 0.333 0.113 0 0.228-0.029 0.333-0.089l1.090-0.629v1.258c0 0.369 0.298 0.667 0.667 0.667s0.667-0.298 0.667-0.667v-1.257l1.089 0.628c0.105 0.061 0.22 0.089 0.333 0.089 0.229 0 0.454-0.12 0.577-0.333 0.185-0.319 0.075-0.727-0.243-0.911l-1.089-0.629 1.089-0.629c0.319-0.184 0.428-0.592 0.243-0.911zM23.664 26.441c-0.184-0.32-0.591-0.427-0.91-0.244l-1.090 0.629v-1.258c0-0.369-0.298-0.667-0.667-0.667s-0.667 0.298-0.667 0.667v1.257l-1.089-0.628c-0.319-0.181-0.727-0.074-0.91 0.244-0.185 0.319-0.075 0.727 0.243 0.911l1.089 0.629-1.089 0.629c-0.319 0.184-0.428 0.592-0.243 0.911 0.122 0.214 0.348 0.333 0.577 0.333 0.113 0 0.228-0.029 0.333-0.089l1.089-0.628v1.257c0 0.369 0.298 0.667 0.667 0.667s0.667-0.298 0.667-0.667v-1.258l1.090 0.629c0.105 0.061 0.22 0.089 0.333 0.089 0.229 0 0.454-0.12 0.577-0.333 0.185-0.319 0.075-0.727-0.243-0.911l-1.089-0.629 1.089-0.629c0.319-0.185 0.428-0.592 0.243-0.911z"></path>
</symbol>
<symbol id="snow_light" viewBox="0 0 32 32">
<path d="M14.667 4c3.681 0 6.87 2.497 7.755 6.071l0.243 0.98 1.009 0.032c2.426 0.077 4.326 2.032 4.326 4.45 0 2.463-2.004 4.467-4.467 4.467h-16.533c-1.654 0-3-1.346-3-3 0-1.228 0.74-2.319 1.884-2.779l0.932-0.375-0.103-0.999c-0.031-0.301-0.046-0.578-0.046-0.847 0-4.411 3.589-8 8-8zM14.667 2.667c-5.155 0-9.333 4.177-9.333 9.333 0 0.333 0.020 0.661 0.053 0.984-1.592 0.64-2.72 2.193-2.72 4.016 0 2.392 1.94 4.333 4.333 4.333h16.533c3.204 0 5.8-2.597 5.8-5.8 0-3.141-2.5-5.684-5.617-5.783-1.007-4.067-4.671-7.084-9.049-7.084v0zM18.422 26.214l-1.089 0.629 1.089 0.629c0.319 0.184 0.428 0.592 0.243 0.911-0.184 0.321-0.592 0.428-0.91 0.244l-1.089-0.629v1.257c0 0.369-0.298 0.667-0.667 0.667s-0.667-0.298-0.667-0.667v-1.257l-1.089 0.629c-0.318 0.182-0.727 0.075-0.91-0.244-0.185-0.319-0.075-0.727 0.243-0.911l1.089-0.629-1.089-0.629c-0.319-0.184-0.428-0.592-0.243-0.911 0.122-0.214 0.348-0.333 0.577-0.333 0.113 0 0.228 0.029 0.333 0.089l1.089 0.629v-1.257c0-0.369 0.298-0.667 0.667-0.667s0.667 0.298 0.667 0.667v1.257l1.089-0.629c0.105-0.061 0.22-0.089 0.333-0.089 0.229 0 0.454 0.119 0.577 0.333 0.185 0.319 0.076 0.727-0.243 0.911zM23.329 25.509c-0.736 0-1.333 0.597-1.333 1.333s0.597 1.333 1.333 1.333c0.736 0 1.333-0.597 1.333-1.333s-0.597-1.333-1.333-1.333zM8.671 25.509c-0.736 0-1.333 0.597-1.333 1.333s0.597 1.333 1.333 1.333 1.333-0.597 1.333-1.333-0.597-1.333-1.333-1.333z"></path>
</symbol>
<symbol id="tstorm" viewBox="0 0 32 32">
<path d="M22.356 29.557v0c-0.34-0.141-0.502-0.531-0.361-0.871l2.169-5.235c0.141-0.34 0.531-0.502 0.871-0.361s0.502 0.531 0.361 0.871l-2.169 5.235c-0.141 0.34-0.531 0.502-0.871 0.361zM3.97 29.197l2.169-5.235c0.141-0.34-0.021-0.73-0.361-0.871s-0.73 0.021-0.871 0.361l-2.169 5.235c-0.141 0.34 0.021 0.73 0.361 0.871s0.73-0.020 0.871-0.361zM8.951 29.197l2.169-5.235c0.141-0.34-0.021-0.73-0.361-0.871s-0.73 0.021-0.871 0.361l-2.169 5.235c-0.141 0.34 0.021 0.73 0.361 0.871s0.73-0.020 0.871-0.361zM20.736 29.196l0.458-1.105c0.141-0.34-0.020-0.73-0.361-0.871s-0.73 0.021-0.871 0.361l-0.458 1.105c-0.141 0.34 0.021 0.73 0.361 0.871s0.73-0.021 0.871-0.361zM11.441 29.196l0.458-1.105c0.141-0.34-0.021-0.73-0.361-0.871s-0.73 0.021-0.871 0.361l-0.458 1.105c-0.141 0.34 0.021 0.73 0.361 0.871s0.73-0.020 0.871-0.361zM6.46 29.197l0.458-1.105c0.141-0.34-0.021-0.73-0.361-0.871s-0.73 0.021-0.871 0.361l-0.458 1.105c-0.141 0.34 0.021 0.73 0.361 0.871s0.73-0.021 0.871-0.361zM22.088 25.935l0.818-1.974c0.141-0.34-0.021-0.73-0.361-0.871s-0.73 0.021-0.871 0.361l-0.818 1.974c-0.141 0.34 0.021 0.73 0.361 0.871s0.731-0.021 0.871-0.361zM7.811 25.936l0.818-1.974c0.141-0.34-0.021-0.73-0.361-0.871s-0.73 0.021-0.871 0.361l-0.818 1.974c-0.141 0.34 0.021 0.731 0.361 0.871s0.73-0.020 0.871-0.361z"></path>
<path d="M20.85 18.266h-3.994l0.712-4.255c0.090-0.537-0.324-1.025-0.868-1.025h-4.332c-0.434 0-0.804 0.317-0.87 0.746l-1.22 7.921c-0.082 0.533 0.33 1.014 0.87 1.014h3.355l-0.133 0.995-0.728 5.271c-0.042 0.301 0.075 0.602 0.309 0.797 0.145 0.106 0.145 0.106 0.31 0.172 0.383 0.128 0.804-0.022 1.021-0.362l6.311-9.921c0.373-0.586-0.048-1.352-0.742-1.352z"></path>
<path d="M23.716 9.751c-1.007-4.067-4.671-7.084-9.049-7.084-5.155 0-9.333 4.177-9.333 9.333 0 0.333 0.020 0.661 0.053 0.984-1.592 0.64-2.72 2.193-2.72 4.016 0 2.392 1.94 4.333 4.333 4.333h1.979l0.205-1.333h-2.185c-1.654 0-3-1.346-3-3 0-1.228 0.74-2.319 1.884-2.779l0.932-0.375-0.103-0.999c-0.031-0.301-0.046-0.579-0.046-0.847 0-4.411 3.589-8 8-8 3.681 0 6.87 2.497 7.755 6.071l0.243 0.98 1.009 0.032c2.426 0.077 4.326 2.031 4.326 4.45 0 2.463-2.004 4.467-4.467 4.467h-0.662c-0.047 0.113-0.087 0.229-0.154 0.334l-0.635 0.999h1.451c3.204 0 5.8-2.597 5.8-5.8 0-3.141-2.5-5.684-5.617-5.782z"></path>
<path d="M32 11.443c0-2.468-1.875-4.466-4.213-4.544-0.755-3.195-3.503-5.566-6.787-5.566-1.917 0-3.645 0.814-4.907 2.123l1.457 0.478c0.956-0.787 2.147-1.268 3.45-1.268 2.6 0 4.857 1.867 5.488 4.54l0.236 0.992 1.018 0.034c1.639 0.054 2.925 1.465 2.925 3.211 0 1.409-0.855 2.596-2.036 3.034l0.208 1.32c1.821-0.541 3.161-2.273 3.161-4.354z"></path>
</symbol>
<symbol id="spinner" viewBox="0 0 32 32">
<path d="M16 32c-4.274 0-8.292-1.664-11.314-4.686s-4.686-7.040-4.686-11.314c0-3.026 0.849-5.973 2.456-8.522 1.563-2.478 3.771-4.48 6.386-5.791l1.344 2.682c-2.126 1.065-3.922 2.693-5.192 4.708-1.305 2.069-1.994 4.462-1.994 6.922 0 7.168 5.832 13 13 13s13-5.832 13-13c0-2.459-0.69-4.853-1.994-6.922-1.271-2.015-3.066-3.643-5.192-4.708l1.344-2.682c2.615 1.31 4.824 3.313 6.386 5.791 1.607 2.549 2.456 5.495 2.456 8.522 0 4.274-1.664 8.292-4.686 11.314s-7.040 4.686-11.314 4.686z"></path>
</symbol>
</defs>
</svg>
